<svg xmlns="http://www.w3.org/2000/svg" width="20" height="20" viewBox="0 0 20 20">
    <path fill="#A1A1A1" fill-rule="evenodd" d="M9.976 12.666c-1.46 0-2.665-1.184-2.665-2.666 0-1.46 1.184-2.665 2.665-2.665 1.46 0 2.666 1.184 2.666 2.665 0 1.46-1.205 2.666-2.666 2.666zm9.501-1.227v-2.92l-2.793-.465c-.148-.508-.339-.995-.593-1.439l1.63-2.328-2.074-2.073-2.285 1.671c-.466-.254-.952-.465-1.46-.613L11.414.5h-2.92l-.444 2.772c-.509.148-.995.339-1.46.592l-2.285-1.63-2.074 2.074L3.84 6.594c-.253.465-.465.952-.613 1.46l-2.751.465v2.92l2.751.486c.148.509.36.995.613 1.46L2.212 15.65l2.072 2.073 2.286-1.586c.465.253.952.465 1.46.613l.465 2.75h2.92l.486-2.77c.509-.15.995-.36 1.46-.615l2.307 1.63 2.073-2.074-1.65-2.285c.254-.466.445-.952.593-1.439l2.793-.508z"/>
</svg>
