<svg xmlns="http://www.w3.org/2000/svg" width="15" height="15" viewBox="0 0 15 15">
    <g fill="none" fill-rule="evenodd">
        <path fill="var(--color-theme-primary)" d="M14 5.688h-1.75V1.75H7.875V0H14v5.688z" transform="translate(.5 .5)"/>
        <path fill="#084786" d="M0 1.313H1.75V14.001000000000001H0z" transform="translate(.5 .5)"/>
        <path fill="#084786" d="M6.125 7.438H7.875V18.813H6.125z" transform="translate(.5 .5) rotate(90 7 13.125)"/>
        <path fill="#084786" d="M3.063 -0.438L4.813 -0.438 4.813 4.813 3.063 4.813z" transform="translate(.5 .5) rotate(90 3.938 2.188)"/>
        <path fill="#084786" d="M10.938 7.438H12.688V12.687999999999999H10.938z" transform="translate(.5 .5) rotate(-180 11.813 10.063)"/>
        <path fill="var(--color-theme-primary)" d="M8.113 -1.201L9.863 -1.201 9.863 11.224 8.113 11.224z" transform="translate(.5 .5) rotate(-135 8.988 5.012)"/>
    </g>
</svg>
