<svg xmlns="http://www.w3.org/2000/svg" width="12" height="12" viewBox="0 0 12 12">
    <path fill="#4D4C4C" d="M9.18 1.36c.664 0 1.203.538 1.203 1.202 0 .665-.539 1.204-1.203 1.204-.205 0-.397-.051-.566-.141L3.362 8.863c.093.17.146.366.146.575 0 .664-.539 1.203-1.203 1.203-.665 0-1.203-.539-1.203-1.204 0-.664.538-1.203 1.203-1.203.206 0 .4.052.57.143l5.25-5.236c-.095-.172-.148-.369-.148-.579 0-.664.538-1.203 1.203-1.203zM2.305 8.921c-.285 0-.516.23-.516.515 0 .285.231.516.516.516.285 0 .515-.23.515-.515 0-.285-.23-.516-.515-.516zM9.18 2.047c-.285 0-.516.23-.516.515 0 .285.231.516.516.516.285 0 .515-.23.515-.515 0-.285-.23-.516-.515-.516z"/>
</svg>
