<svg width="20" height="20" viewBox="0 0 30 30"  fill="#FFFFFF" xmlns="http://www.w3.org/2000/svg">
<path d="M28.0039 0.178772C27.3653 -0.0520272 26.6679 -0.05956 26.0244 0.15739L2.05736 8.25664C1.48036 8.4513 0.97538 8.81696 0.608764 9.30559C0.242147 9.79422 0.0310379 10.383 0.00316609 10.9945C-0.0247057 11.606 0.131964 12.2117 0.452595 12.732C0.773226 13.2524 1.24282 13.663 1.7997 13.9099L11.5471 18.2349L15.6419 28.1296C15.8755 28.695 16.2736 29.1761 16.7839 29.5097C17.2942 29.8434 17.893 30.014 18.5014 29.9991C19.1099 29.9842 19.6997 29.7846 20.1933 29.4265C20.6869 29.0683 21.0613 28.5683 21.2674 27.9923L29.8224 4.06058C30.0928 3.30325 30.0532 2.4689 29.7122 1.74096C29.3712 1.01303 28.7567 0.451114 28.0039 0.178772ZM19.3722 27.3054C19.3038 27.4976 19.1791 27.6644 19.0145 27.7839C18.85 27.9034 18.6533 27.9699 18.4505 27.9749C18.2476 27.9798 18.048 27.9228 17.8779 27.8114C17.7079 27.7 17.5753 27.5394 17.4978 27.3508L13.5124 17.7159L27.8538 3.59082L19.3722 27.3054ZM12.1042 16.2704L2.61198 12.0588C2.42816 11.9754 2.2735 11.8384 2.16807 11.6655C2.06264 11.4926 2.01132 11.2919 2.02077 11.0893C2.03021 10.8867 2.09999 10.6916 2.22104 10.5294C2.34209 10.3672 2.50882 10.2454 2.69958 10.1797L26.4457 2.14851L12.1042 16.2736V16.2704Z"/>
</svg>
