<svg xmlns="http://www.w3.org/2000/svg" width="33" height="16" viewBox="0 0 33 16">
    <g fill="none">
        <path fill="var(--color-theme-primary)" d="M7.142 11.365c.786 0 1.408-.187 1.866-.56.458-.374.687-.914.687-1.622 0-.474-.133-.89-.4-1.248-.268-.357-.635-.585-1.102-.685.357-.13.646-.331.865-.602.22-.27.33-.578.33-.921 0-.697-.229-1.22-.685-1.569-.457-.348-1.089-.523-1.896-.523H4.286v7.73h2.856zM7.025 6.92H5.332V4.458h1.475c.496 0 .876.104 1.14.31.263.208.395.52.395.938 0 .382-.122.68-.367.894-.244.214-.56.321-.95.321zm.117 3.626h-1.81V7.74h1.964c.46 0 .8.13 1.022.387.221.259.332.614.332 1.067 0 .432-.133.766-.399 1.001-.265.236-.635.353-1.11.353zm9.221.818v-.818h-4.082V7.781h3.54V6.96h-3.54v-2.5h4.024v-.824h-5.07v7.73h5.128zm4.083 0V4.458h2.484v-.823h-6.01v.823h2.48v6.907h1.046zm3.265 0l.732-1.991h3.238l.722 1.99h1.068l-2.942-7.729h-.897l-2.989 7.73h1.068zm3.657-2.867h-2.601l1.295-3.52h.032l1.274 3.52z" transform="translate(-.59 .733)"/>
        <path fill="#00479A" d="M28.602.1H5.148C2.718.1.75 2.14.75 4.655v5.69c0 2.516 1.969 4.555 4.398 4.555h23.454c2.43 0 4.398-2.04 4.398-4.555v-5.69C33 2.14 31.031.1 28.602.1zM5.148 1.112h23.454c1.89 0 3.42 1.587 3.42 3.543v5.69c0 1.956-1.53 3.543-3.42 3.543H5.148c-1.89 0-3.42-1.587-3.42-3.543v-5.69c0-1.956 1.53-3.543 3.42-3.543z" transform="translate(-.59 .733)"/>
    </g>
</svg>
