<svg xmlns="http://www.w3.org/2000/svg" width="16" height="17" viewBox="0 0 16 17">
    <g fill="#B1B1B1" fill-rule="evenodd">
        <path fill-rule="nonzero" d="M8 0c4.418 0 8 3.582 8 8s-3.582 8-8 8-8-3.582-8-8 3.582-8 8-8zm0 1.5C4.41 1.5 1.5 4.41 1.5 8s2.91 6.5 6.5 6.5 6.5-2.91 6.5-6.5S11.59 1.5 8 1.5z" transform="translate(0 .13)"/>
        <path d="M3.5 7.25H12.5V8.75H3.5z" transform="translate(0 .13)"/>
        <path d="M3.5 7.25L12.5 7.25 12.5 8.75 3.5 8.75z" transform="translate(0 .13) rotate(-90 8 8)"/>
    </g>
</svg>
