<svg xmlns="http://www.w3.org/2000/svg" width="28" height="28" viewBox="0 0 28 28">
    <g fill="none" fill-rule="evenodd">
        <g>
            <path fill="#D8D8D8" d="M3.538 8.221L5.378 3.813 8.516 1.863 12.86 1.609 16.449 4.915 19.202 4.562 21.706 6.038 22.541 8.542 24.778 10.142 25.881 12.098 25.046 14.738 23.063 16.891 3.877 16.526 1.153 14.386 1.153 11.437z" transform="translate(-.998 .01) translate(.977 4.43)"/>
            <path fill="var(--color-theme-primary)" fill-rule="nonzero" d="M10.574.223c2.536 0 4.865 1.22 6.355 3.222l.012.018.043-.017a5.063 5.063 0 011.672-.344l.175-.003c2.694 0 4.901 2.099 5.155 4.791l.006.079.131.06a5.1 5.1 0 012.898 4.47l.002.13a5.097 5.097 0 01-5.097 5.097H5.096a5.097 5.097 0 01-2.57-9.499l.066-.038.003-.088c.147-4.324 3.583-7.8 7.837-7.877zm.237 10.357a1.823 1.823 0 100 3.646 1.823 1.823 0 000-3.646zm5.286 0a1.823 1.823 0 100 3.646 1.823 1.823 0 000-3.646zm-2.639-4.65a1.823 1.823 0 100 3.647 1.823 1.823 0 000-3.646z" transform="translate(-.998 .01) translate(.977 4.43)"/>
        </g>
    </g>
</svg>
