<svg xmlns="http://www.w3.org/2000/svg" width="14" height="14" viewBox="0 0 14 14">
    <g fill="none" fill-rule="evenodd">
        <g fill="#2b4877" fill-rule="nonzero">
            <g>
                <path d="M6.034 4.503l.62.619-1.442 1.44h5.339v1H5.338l1.315 1.316-.619.619L3.538 7l2.496-2.497z" transform="translate(-755 -477) matrix(-1 0 0 1 769 477)"/>
                <path d="M7 0c3.866 0 7 3.134 7 7s-3.134 7-7 7-7-3.134-7-7 3.134-7 7-7zm0 .875C3.617.875.875 3.617.875 7S3.617 13.125 7 13.125 13.125 10.383 13.125 7 10.383.875 7 .875z" transform="translate(-755 -477) matrix(-1 0 0 1 769 477)"/>
            </g>
        </g>
    </g>
</svg>
