<svg xmlns="http://www.w3.org/2000/svg" width="17" height="16" viewBox="0 0 17 16">
    <g fill="none" fill-rule="evenodd" transform="translate(.386)">
        <path fill="#D2D2D2" fill-opacity="0.25" d="M8.044 1.5l6.585 4.784-2.515 7.742h-8.14L1.46 6.284z"/>
        <circle cx="8.12" cy="2" r="1.112" fill="#D2D2D2" stroke="#979797"/>
        <circle cx="14.208" cy="6.355" r="1.112" fill="#D2D2D2" stroke="#979797"/>
        <circle cx="11.88" cy="13.692" r="1.112" fill="#D2D2D2" stroke="#979797"/>
        <circle cx="4.12" cy="13.612" r="1.112" fill="#D2D2D2" stroke="#979797"/>
        <circle cx="1.62" cy="6.355" r="1.112" fill="#D2D2D2" stroke="#979797"/>
        <path fill="#979797" fill-rule="nonzero" d="M7.36 2.281l-.587-.811-4.931 3.583.619.813a.81.81 0 0 1-.408 1.262l-.974.297 1.874 5.77.977-.362a.808.808 0 0 1 1.088.713v.061l-.04 1.055h6.086l.016-.984a.808.808 0 0 1 1.043-.76l.938.283 1.876-5.772-.963-.303a.81.81 0 0 1-.404-1.256l.611-.813-4.923-3.576-.588.804a.806.806 0 0 1-1.31-.004zm-.81.586a1.806 1.806 0 0 0 2.927.009l3.294 2.392a1.81 1.81 0 0 0 .903 2.812l-1.261 3.88a1.808 1.808 0 0 0-2.333 1.702H6.018l.001-.07a1.808 1.808 0 0 0-2.437-1.697l-1.237-3.81a1.81 1.81 0 0 0 .912-2.824L6.55 2.867z"/>
        <path fill="#979797" fill-rule="nonzero" d="M8.008 0a1.808 1.808 0 1 1 0 3.617 1.808 1.808 0 0 1 0-3.617zm0 1a.808.808 0 1 0 0 1.617.808.808 0 0 0 0-1.617zM14.208 4.546a1.808 1.808 0 1 1 0 3.617 1.808 1.808 0 0 1 0-3.617zm0 1a.808.808 0 1 0 0 1.617.808.808 0 0 0 0-1.617zM11.88 11.883a1.808 1.808 0 1 1 0 3.617 1.808 1.808 0 0 1 0-3.617zm0 1a.808.808 0 1 0 0 1.617.808.808 0 0 0 0-1.617zM4.202 11.783a1.808 1.808 0 1 1 0 3.616 1.808 1.808 0 0 1 0-3.616zm0 1a.808.808 0 1 0 0 1.616.808.808 0 0 0 0-1.616zM1.808 4.546a1.808 1.808 0 1 1 0 3.617 1.808 1.808 0 0 1 0-3.617zm0 1a.808.808 0 1 0 0 1.617.808.808 0 0 0 0-1.617z"/>
    </g>
</svg>
