<svg xmlns="http://www.w3.org/2000/svg" width="23" height="23" viewBox="0 0 23 23">
    <g fill="none" fill-rule="evenodd" transform="translate(.5 1)">
        <path fill="#F9EEC7" fill-opacity=".25" d="M16.26 13.009l.715.715-1.208 3.901-2.421-.028-1.288-1.288 2.958-.997.615-.62.629-1.683zM11.036 4.5L18.5 8.804l-1.023 3.301-1.806-1.807-1.333 3.566-.138.14-4.912 1.657 1.912 1.911-4.217-.048L3.903 9l7.133-4.5z"/>
        <circle cx="11.112" cy="5" r="1.112" fill="#F9EEC7"/>
        <path fill="#EEC31F" fill-rule="nonzero" d="M16.26 13.009l.915.915-.518 1.593c.246.321.394.722.398 1.157l-.34.337-.407 1.207c-.327.255-.739.407-1.186.407-.4 0-.77-.12-1.077-.328l-1.76-1.76h.91c.018-.239.08-.466.179-.673l1.642-.552.508-.513.048.01.028-.087.03-.03.63-1.683zM11.25 2.875c1.068 0 1.933.866 1.933 1.933l-.001.013 3.697 2.686c.18-.056.372-.086.571-.086 1.068 0 1.933.866 1.933 1.934 0 .853-.552 1.577-1.32 1.834l-.368 1.134-.993-.993.055-.17c-.725-.278-1.24-.982-1.24-1.805 0-.392.116-.757.317-1.061l-3.092-2.247-.01.013c-.327.385-.792.63-1.302.674-.017 0-.033.002-.049.003l-.05.003-.073.002-.133-.006-.062-.004c-.522-.05-.983-.307-1.3-.688L6.672 8.29l.016.025c.183.285.288.615.302.96l.002.08c0 .789-.476 1.485-1.181 1.782l-.068.027 1.16 3.572c.102-.03.207-.052.315-.064h.01c.036-.005.074-.008.113-.01l.025-.001.067-.002h.02c1.026 0 1.865.8 1.929 1.81l.003.07.78-.001 1.25 1.25H8.963c-.354.45-.903.737-1.519.737-1.068 0-1.933-.865-1.933-1.933 0-.4.121-.772.33-1.08l-1.404-4.322c-.767-.256-1.32-.98-1.32-1.834 0-1.068.865-1.934 1.933-1.934.199 0 .39.03.57.086l3.697-2.685v-.014c0-1.067.865-1.933 1.933-1.933zm3.877 13.133c-.356 0-.65.277-.678.63l-.002.042-.002.103c.05.34.334.592.677.592.377 0 .683-.306.683-.683 0-.376-.303-.68-.678-.684zm-7.679-.1l-.086.005c-.04.006-.07.013-.101.022l-.085.027c-.244.104-.415.347-.415.63 0 .376.306.682.683.682.377 0 .683-.306.683-.683 0-.376-.303-.681-.679-.683zM17.45 8.67c-.194 0-.37.081-.494.212l-.045.062c-.089.118-.136.26-.136.41 0 .283.175.535.434.636l.044.016.033.011c.052.013.107.02.164.02.377 0 .683-.306.683-.683 0-.378-.306-.684-.683-.684zm-12.4 0c-.377 0-.683.306-.683.684 0 .377.306.683.683.683.377 0 .683-.306.683-.683 0-.378-.306-.684-.683-.684zm6.2-4.546c-.377 0-.683.306-.683.683 0 .12.03.231.083.328l.054.072c.129.178.33.282.55.284.373 0 .68-.306.68-.684 0-.377-.307-.683-.684-.683z"/>
        <path fill="#EEC31F" fill-rule="nonzero" d="M16.141 12.557L19.45 15.865 17.453 16.611 16.913 17.147 15.806 20.43 11.577 16.201 14.86 15.094 15.396 14.554z"/>
        <path fill="#EEC31F" d="M10.022 21.254L10.772 22.005 13.171 19.606 12.421 18.855zM16.136 10.769l.864.857-.032-.698-.832-.16z"/>
    </g>
</svg>
