<svg xmlns="http://www.w3.org/2000/svg" xmlns:xlink="http://www.w3.org/1999/xlink" width="44" height="16" viewBox="0 0 44 16">
    <defs>
        <path id="prefix__a" d="M8.027 1.084C4.96 1.084 2.284 2.385 0 4.987L8.064 10.2l7.99-5.213c-2.283-2.602-4.959-3.903-8.027-3.903z"/>
    </defs>
    <g fill="none" fill-rule="evenodd" transform="translate(.002 2.5)">
        <path fill="#C179DE" fill-rule="nonzero" d="M21.8 10.666c.714 0 1.351-.093 1.912-.28.562-.188 1.025-.44 1.39-.757.366-.318.668-.699.907-1.142.24-.444.411-.912.516-1.403.104-.492.156-1.02.156-1.586 0-1.661-.422-2.936-1.266-3.823C24.572.787 23.371.344 21.814.344h-3.067v10.322h3.054zm-.195-1.448H20.47V1.805h1.161c1.027 0 1.827.285 2.401.855.574.57.861 1.516.861 2.838 0 2.48-1.096 3.72-3.288 3.72zm7.634 1.448l1.396-2.414.875-1.566h.052c.478.844.779 1.366.9 1.566l1.41 2.414h1.996l-3.314-5.298L35.699.344h-2.023L32.41 2.588c-.54.949-.822 1.449-.848 1.501h-.052c-.096-.183-.237-.441-.424-.776s-.32-.577-.398-.725L29.435.344h-2.036l3.132 5.024-3.302 5.298h2.01zm9.5 0v-4.45h4.346V4.768h-4.346v-2.95h4.855V.344h-6.577v10.322h1.722z"/>
        <mask id="prefix__b" fill="#fff">
            <use xlink:href="#prefix__a"/>
        </mask>
        <use fill="#C179DE" xlink:href="#prefix__a"/>
        <path fill="#FFF" fill-rule="nonzero" d="M2.706 6.437c2.532-3.583 6.186-5.374 10.819-5.201l.146.006-.026.585c-4.46-.203-7.89 1.379-10.328 4.757l-.133.191-.478-.338z" mask="url(#prefix__b)" transform="scale(-1 1) rotate(-2 0 473.124)"/>
        <path fill="#FFF" fill-rule="nonzero" d="M2.264 6.543C4.796 2.961 8.45 1.17 13.083 1.342l.146.006-.026.585c-4.46-.203-7.89 1.38-10.328 4.757l-.133.191-.478-.338z" mask="url(#prefix__b)" transform="rotate(-2 7.747 4.106)"/>
        <path fill="#FFF" fill-rule="nonzero" d="M15.805 2.703l.025.586C11.8 3.46 8.44 5.642 6.234 8.874l-.076.112-.488-.325c2.275-3.613 5.798-5.734 9.988-5.95l.147-.008z" mask="url(#prefix__b)"/>
        <path fill="#FFF" fill-rule="nonzero" d="M10.507 2.703l.025.586C6.502 3.46 3.144 5.642.937 8.874l-.076.112-.488-.325c2.275-3.613 5.797-5.734 9.988-5.95l.146-.008z" mask="url(#prefix__b)" transform="matrix(-1 0 0 1 10.906 0)"/>
    </g>
</svg>
