<svg xmlns="http://www.w3.org/2000/svg" width="45" height="16" viewBox="0 0 45 16">
    <g fill="none" fill-rule="evenodd">
        <g fill="#F1D1D2">
            <g>
                <g>
                    <g>
                        <path d="M0 3.281L7.5 0 15 3.281 7.5 6.563z" transform="translate(-145 -409) translate(145.5 409.004) translate(0 1.406)"/>
                        <path d="M13.393 5.39L15 6.095 7.5 9.375 0 6.094l1.607-.703L7.5 7.969l5.893-2.578z" transform="translate(-145 -409) translate(145.5 409.004) translate(0 1.406)"/>
                        <path d="M13.393 8.203L15 8.906l-7.5 3.281L0 8.908l1.607-.704L7.5 10.781l5.893-2.578z" transform="translate(-145 -409) translate(145.5 409.004) translate(0 1.406)"/>
                    </g>
                    <path fill-rule="nonzero" d="M20.53 11.25V7.248h2.334c1.025 0 1.849-.283 2.47-.848.622-.565.933-1.334.933-2.307 0-.948-.302-1.71-.906-2.289-.605-.578-1.445-.867-2.523-.867h-4.029V11.25h1.721zm2.1-5.463h-2.1V2.411h2.086c.617 0 1.087.143 1.408.43.322.287.483.704.483 1.252 0 .556-.166.977-.496 1.264-.33.287-.79.43-1.382.43zm8.304 5.463c.713 0 1.35-.093 1.91-.28.56-.187 1.023-.44 1.388-.756.365-.318.667-.698.906-1.141.24-.443.411-.91.515-1.402.105-.49.157-1.019.157-1.584 0-1.66-.422-2.933-1.265-3.82-.843-.886-2.042-1.33-3.598-1.33h-3.064V11.25h3.05zm-.196-1.447h-1.134V2.398h1.16c1.026 0 1.826.284 2.4.854.573.569.86 1.514.86 2.835 0 2.477-1.095 3.716-3.286 3.716zm8.475 1.447V6.804h4.341V5.357h-4.341V2.411h4.85V.937h-6.571V11.25h1.72z" transform="translate(-145 -409) translate(145.5 409.004) translate(0 1.406)"/>
                </g>
            </g>
        </g>
    </g>
</svg>
