<svg xmlns="http://www.w3.org/2000/svg" width="45" height="16" viewBox="0 0 45 16">
    <g fill="none" fill-rule="evenodd">
        <g fill="#F5E3B5">
            <g>
                <g>
                    <g>
                        <path d="M0 3.281L7.5 0 15 3.281 7.5 6.563z" transform="translate(-145 -369) translate(145.5 369.002) translate(0 1.406)"/>
                        <path d="M13.393 5.39L15 6.095 7.5 9.375 0 6.094l1.607-.703L7.5 7.969l5.893-2.578z" transform="translate(-145 -369) translate(145.5 369.002) translate(0 1.406)"/>
                        <path d="M13.393 8.203L15 8.906l-7.5 3.281L0 8.908l1.607-.704L7.5 10.781l5.893-2.578z" transform="translate(-145 -369) translate(145.5 369.002) translate(0 1.406)"/>
                    </g>
                    <path fill-rule="nonzero" d="M21.8 11.26c.714 0 1.351-.094 1.912-.28.562-.188 1.025-.44 1.39-.758.366-.317.668-.698.907-1.141.24-.444.411-.912.516-1.403.104-.492.156-1.02.156-1.586 0-1.662-.422-2.936-1.266-3.823-.843-.888-2.044-1.332-3.601-1.332h-3.067V11.26h3.054zm-.195-1.449H20.47V2.4h1.161c1.027 0 1.827.285 2.401.855.574.57.861 1.516.861 2.838 0 2.48-1.096 3.72-3.288 3.72zm7.634 1.449l1.396-2.414.875-1.566h.052c.478.844.779 1.366.9 1.566l1.41 2.414h1.996l-3.314-5.298L35.699.938h-2.023L32.41 3.182c-.54.948-.822 1.449-.848 1.5h-.052c-.096-.182-.237-.44-.424-.776-.187-.335-.32-.576-.398-.724L29.435.938h-2.036l3.132 5.024-3.302 5.298h2.01zm9.5 0V6.81h4.346V5.36h-4.346V2.412h4.855V.938h-6.577V11.26h1.722z" transform="translate(-145 -369) translate(145.5 369.002) translate(0 1.406)"/>
                </g>
            </g>
        </g>
    </g>
</svg>
