<svg xmlns="http://www.w3.org/2000/svg" width="14" height="14" viewBox="0 0 14 14">
    <g fill="none" fill-rule="evenodd">
        <g fill="#EFEFF3" fill-rule="nonzero">
            <g>
                <path d="M11.594 0C12.923 0 14 1.077 14 2.406v9.188C14 12.923 12.923 14 11.594 14H2.406C1.077 14 0 12.923 0 11.594V2.406C0 1.077 1.077 0 2.406 0h9.188zm0 1.75H2.406c-.35 0-.635.273-.655.618l-.001.038v9.188c0 .35.273.635.618.655l.038.001h9.188c.35 0 .635-.273.655-.618l.001-.038V2.406c0-.35-.273-.635-.618-.655l-.038-.001z" transform="translate(-121 -410) translate(121 410.004)"/>
            </g>
        </g>
    </g>
</svg>
