<svg version="1.1" xmlns="http://www.w3.org/2000/svg" x="0px" y="0px" width="45" height="16"  viewBox="0 0 45 16" style="enable-background:new 0 0 45 16;" xml:space="preserve">
<g fill="#3A89FE">
	<polygon points="0.9,5.2 8.4,1.9 15.9,5.2 8.4,8.5"/>
	<path d="M14.3,7.3L15.9,8l-7.5,3.3L0.9,8l1.6-0.7l5.9,2.6L14.3,7.3z"/>
	<path d="M14.3,10.1l1.6,0.7l-7.5,3.3l-7.5-3.3l1.6-0.7l5.9,2.6L14.3,10.1z"/>
	<path d="M21.5,2.9c0.9,0,1.7,0.2,2.3,0.6c0.6,0.4,1.1,1,1.4,1.7C25.6,6,25.7,6.9,25.7,8c0,1.1-0.2,2-0.5,2.8c-0.3,0.8-0.8,1.3-1.4,1.7c-0.6,0.4-1.4,0.6-2.3,0.6h-3.3V2.9H21.5z M19.9,11.7h1.5c0.5,0,0.9-0.1,1.2-0.2c0.3-0.2,0.6-0.4,0.9-0.7s0.4-0.7,0.5-1.2c0.1-0.5,0.2-1,0.2-1.6c0-0.8-0.1-1.5-0.3-2.1c-0.2-0.6-0.5-1-0.9-1.2c-0.4-0.3-0.9-0.4-1.5-0.4h-1.5V11.7z"/>
	<path d="M28.2,13.1L25.7,2.9h1.7l1.6,7.8H29l1.8-7.8h1.4l1.8,7.8h0.1l1.6-7.8h1.7l-2.5,10.3h-1.4l-1.9-7.6h-0.1l-1.9,7.6H28.2z"/>
	<path d="M43.4,5.8c-0.1-0.2-0.1-0.5-0.3-0.7c-0.1-0.2-0.3-0.4-0.4-0.5c-0.2-0.1-0.4-0.3-0.6-0.3c-0.2-0.1-0.5-0.1-0.8-0.1c-0.7,0-1.3,0.3-1.7,0.8S39,6.3,39,7.3v1.3c0,0.7,0.1,1.2,0.3,1.7c0.2,0.5,0.4,0.9,0.8,1.1c0.3,0.3,0.8,0.4,1.3,0.4c0.5,0,0.9-0.1,1.2-0.3s0.5-0.4,0.7-0.7c0.2-0.3,0.2-0.7,0.2-1V9h-2.2V7.7H45v2.1c0,0.5-0.1,1-0.2,1.4s-0.4,0.8-0.7,1.1c-0.3,0.3-0.7,0.6-1.1,0.8c-0.5,0.2-1,0.3-1.6,0.3c-0.6,0-1.2-0.1-1.7-0.3s-0.9-0.5-1.2-0.9c-0.3-0.4-0.6-0.9-0.8-1.5c-0.2-0.6-0.3-1.2-0.3-1.9V7.3c0-0.9,0.2-1.8,0.5-2.4c0.3-0.7,0.8-1.2,1.3-1.6c0.6-0.4,1.3-0.6,2.1-0.6c0.5,0,1,0.1,1.4,0.2s0.8,0.4,1.1,0.7s0.6,0.6,0.7,1s0.3,0.8,0.4,1.2H43.4z"/>
</g>
</svg>
