<svg xmlns="http://www.w3.org/2000/svg" width="45" height="16" viewBox="0 0 45 16">
    <g fill="#F7B500" fill-rule="evenodd">
        <path d="M.92 5.188l7.5-3.282 7.5 3.282-7.5 3.28z"/>
        <path d="M14.313 7.297L15.92 8l-7.5 3.281L.92 8l1.607-.703L8.42 9.875l5.893-2.578z"/>
        <path d="M14.313 10.11l1.607.703-7.5 3.28-7.5-3.28 1.607-.704 5.893 2.579 5.893-2.579z"/>
        <path fill-rule="nonzero" d="M22.72 13.166c.714 0 1.351-.093 1.912-.28.562-.188 1.025-.44 1.39-.757.366-.318.668-.699.907-1.142a5.23 5.23 0 0 0 .516-1.403c.104-.492.156-1.02.156-1.586 0-1.661-.422-2.936-1.266-3.823-.843-.888-2.044-1.331-3.601-1.331h-3.067v10.322h3.054zm-.195-1.448H21.39V4.305h1.161c1.027 0 1.827.285 2.401.855.574.57.861 1.516.861 2.838 0 2.48-1.096 3.72-3.288 3.72zm7.634 1.448l1.396-2.414.875-1.566h.052c.478.844.779 1.366.9 1.566l1.41 2.414h1.996l-3.314-5.298 3.145-5.024h-2.023L33.33 5.088c-.54.949-.822 1.449-.848 1.501h-.052a35.49 35.49 0 0 0-.424-.776 41.93 41.93 0 0 1-.398-.725l-1.253-2.244h-2.036l3.132 5.024-3.302 5.298h2.01zm9.5 0v-4.45h4.346V7.268h-4.346v-2.95h4.855V2.844h-6.577v10.322h1.722z"/>
    </g>
</svg>
