<svg xmlns="http://www.w3.org/2000/svg" width="93" height="89" viewBox="0 0 93 89">
    <g fill="none" fill-rule="evenodd">
        <path stroke="#CCC" stroke-width="4.95" d="M37.663 59.482L16.832 69.966 41.325 82.294 65.816 69.966 44.959 59.469" transform="translate(5 3)"/>
        <path stroke="#CCC" stroke-width="4.95" d="M28.752 35.533L8.669 45.641 41.324 62.077 73.979 45.641 54.344 35.759" transform="translate(5 3)"/>
        <g>
            <path stroke="#CCC" stroke-width="4.95" d="M41.324 0.706L0.505 21.251 41.324 41.796 82.143 21.251z" transform="translate(5 3) translate(0 .065)"/>
            <path fill="#CCC" d="M69.735 25.736c-3.086-1.755-5.226-3.091-7.17-4.764l.74-.351c.461-.217.922-.433 1.356-.65.644-.322 1.314-.644 1.985-.965.674-.324 1.35-.648 1.997-.972.432-.216.838-.432 1.243-.649.333-.177.666-.355 1.015-.533.952.573 1.891 1.145 2.822 1.712 1.402.854 2.786 1.697 4.166 2.511l-8.154 4.661zm-9.897 5.702c-2.397-1.404-4.91-2.972-7.232-4.929.478-.309.955-.608 1.433-.906.651-.407 1.301-.813 1.923-1.229 1.605-.903 3.26-1.834 4.98-2.658 2.12 1.893 4.234 3.286 7.066 5.052l-8.17 4.67zm-9.902 5.708c-2.222-1.262-4.648-2.711-7.022-4.135.11-.069.215-.138.322-.206.297-.189.593-.378.923-.597 1.368-.947 2.781-1.926 4.191-2.794l.726-.488c.684-.463 1.391-.94 2.102-1.379 2.281 1.961 4.628 3.514 7.03 5.025l-8.272 4.574zm-8.718-5.277c-.29-.171-.568-.341-.845-.512-.354-.218-.708-.435-1.057-.632-.702-.487-1.405-.947-2.108-1.406-.696-.455-1.39-.911-2.095-1.397l-2.387-1.592c.538-.436.986-.884 1.486-1.384l.01-.01c1.437-1.533 2.807-3.171 4.444-5.311.834-1.113 1.683-2.162 2.67-3.352.927 1.061 1.795 2.218 2.657 3.366.31.382.621.769.934 1.16 1.097 1.37 2.232 2.785 3.481 4.117.381.456.801.851 1.207 1.232l.152.143-2.453 1.635c-1.37.95-2.788 1.931-4.192 2.794-.569.38-1.24.769-1.904 1.149zm-8.4 5.269l-8.17-4.767c2.266-1.396 4.644-2.967 6.927-4.93.433.271.85.556 1.268.841.518.355 1.035.709 1.556 1.02 1.38.955 2.808 1.944 4.204 2.803.326.216.624.406.922.596l.316.202c-2.406 1.444-4.798 2.881-7.023 4.235zm-9.908-5.597l-8.174-4.671c2.86-1.846 4.986-3.285 7.074-5.149 1.671.842 3.388 1.755 4.977 2.649 1.11.646 2.238 1.387 3.364 2.137-2.327 1.965-4.785 3.5-7.167 4.988l-.074.046zm-9.792-5.596l-8.19-4.68c2.15-1.434 4.562-2.887 6.915-4.299.713.397 1.504.792 2.27 1.176.647.323 1.323.648 1.997.971.671.322 1.341.644 1.985.966.431.215.887.429 1.343.645.253.118.505.237.754.356-2 1.719-4.19 3.077-6.909 4.762l-.165.103zm14.24-10.183l-.347-.277.353.268c.533-.639 1.082-1.299 1.51-1.939.887-1.186 1.908-2.423 2.961-3.588 2.224.031 4.124.621 7.023 3.312.263.264.527.554.791.844.18.199.36.396.541.587-.982 1.178-1.982 2.388-2.869 3.572l-.768.952c-1.136 1.414-2.31 2.877-3.614 4.18l-1.574 1.572c-1.222-.803-2.53-1.609-3.804-2.392-1.44-.865-2.984-1.653-4.498-2.413 1.354-1.223 2.733-2.726 4.295-4.678zm6.315-7.497c2.236-2.235 4.296-3.64 7.658-3.744 3.222.001 5.25 1.358 7.86 3.851.063.065.122.13.18.193-2.305.323-4.293 1.443-6.645 3.707-.43.429-.872.871-1.313 1.37-.155-.164-.308-.333-.462-.502-.273-.301-.547-.601-.82-.875-2.25-2.251-4.306-3.395-6.722-3.711.083-.096.168-.193.264-.289zm17.124 2.06c.297.355.594.703.89 1.047.737.862 1.433 1.676 2.103 2.567.522.626 1.061 1.273 1.507 1.939 1.46 1.732 2.796 3.293 4.205 4.66-1.495.757-2.945 1.534-4.527 2.425-1.264.778-2.569 1.58-3.78 2.377-.202-.221-.413-.432-.623-.643-.287-.287-.575-.573-.835-.887l-.017-.019c-1.527-1.635-3.068-3.512-4.382-5.129-.91-1.212-1.914-2.425-2.895-3.604.45-.513.904-.969 1.347-1.412 2.822-2.823 4.735-3.386 7.007-3.321zm28.862 9.676l-.232.134c-.919-.557-1.872-1.116-2.837-1.678L62.67 11.45c.444.296.888.586 1.324.848 1.377.954 2.801 1.939 4.173 2.78.336.269.712.498 1.065.703-.415.212-.847.441-1.309.705-.645.323-1.314.644-1.985.966-.675.324-1.35.648-1.979.963-.394.175-.788.368-1.189.564-.503.246-1.02.499-1.558.726-1.503-1.327-2.926-2.858-4.582-4.928l-.006-.007c-.52-.623-1.057-1.268-1.5-1.93l-1.95-2.438c.232.021.463.039.692.035.948.105 2.06.218 3.278.218 1.224 0 2.32-.105 3.337-.307l-2.66-1.338c-.224.002-.448.004-.677.004-1.156 0-2.126-.108-3.066-.212-.425-.053-.85-.08-1.263-.107-.357-.023-.705-.045-1.034-.085-.413-.498-.818-.903-1.21-1.295-.877-.877-1.684-1.63-2.518-2.256.556-.003 1.114-.046 1.68-.12L46.34 3.231c-.382-.035-.772-.076-1.189-.132l-.01-.001c-.99-.11-2.067-.218-3.385-.218h-.86c-1.32 0-2.396.108-3.396.219-.418.056-.808.097-1.19.132l-3.183 1.601c.587.078 1.165.119 1.741.119h.024c-.854.625-1.69 1.383-2.497 2.263-.394.394-.875.876-1.29 1.372-.724.018-1.527.118-2.313.215-1.166.13-2.5.231-3.902.177l-2.809 1.414c1.234.169 2.4.263 3.531.263 1.22 0 2.331-.113 3.23-.215.254 0 .495-.017.724-.036-.226.269-.455.539-.684.809-.46.542-.922 1.085-1.35 1.62-.275.33-.524.66-.77.99-.238.316-.474.632-.742.954-1.51 1.889-3.047 3.572-4.567 5.008-.676-.356-1.384-.662-2.07-.96l-.674-.294c-.643-.321-1.313-.642-1.982-.963-.676-.325-1.352-.649-2-.974-.438-.218-.886-.442-1.368-.701l.223-.141c.293-.187.585-.373.875-.548.698-.484 1.396-.939 2.093-1.396.702-.458 1.403-.917 2.106-1.404.503-.352 1.014-.71 1.527-1.057L6.145 18.413c-1.013.599-2.014 1.179-3.018 1.728l-.193-.113-2.429 1.223 35.21 17.722-1.363-.783c2.261-1.32 4.59-2.689 6.98-4.211.933.562 1.855 1.124 2.77 1.68 1.411.861 2.804 1.709 4.195 2.529l-1.368.787 35.214-17.724-2.484-1.25z" transform="translate(5 3) translate(0 .065)"/>
        </g>
    </g>
</svg>
