<svg width="14" height="16" viewBox="0 0 14 16" fill="none" xmlns="http://www.w3.org/2000/svg">
<path d="M12.0219 11.9026L8.20219 0H5.79781L1.97808 11.9026H0V15.5006H14V11.9026H12.0219ZM8.83313 5.93423H5.16687L5.49086 4.91108H8.49208L8.83313 5.93423ZM9.22533 7.14495L10.0438 9.68575H3.9732L4.77466 7.14495H9.22533ZM7.31547 1.21072L8.11693 3.70037H5.88307L6.68453 1.21072H7.31547ZM3.581 10.8794H10.419L10.743 11.9026H3.23995L3.581 10.8794ZM12.7893 14.2899H1.21072V13.1133H12.7893V14.2899Z" fill="#3A89FE"/>
<path d="M8.83423 5.93427H5.16797L5.49196 4.91113H8.51024L8.83423 5.93427Z" fill="#C4DCFF"/>
<path d="M9.22479 7.14502L10.0262 9.66877H3.97266L4.77412 7.14502H9.22479Z" fill="#C4DCFF"/>
<path d="M7.31521 1.21069L8.11667 3.70034H5.88281L6.68427 1.21069H7.31521Z" fill="#C4DCFF"/>
<path d="M3.58181 10.8794H10.4198L10.7438 11.9025H3.25781L3.58181 10.8794Z" fill="#C4DCFF"/>
<path d="M12.7895 13.1133H1.21094V14.2899H12.7895V13.1133Z" fill="#C4DCFF"/>
</svg>
