<svg xmlns="http://www.w3.org/2000/svg" width="25" height="22" viewBox="0 0 25 22">
    <g fill="none" fill-rule="evenodd">
        <path fill="#D8D8D8" d="M6.056 2.133L7.83 4.267h8.702V7.89l-.574 1.538-.363.366L9.9 11.717l2.742 2.742-.474.473-11.635.001-.173-12.8h5.696zm10.477 8.231v4.57l-1.909-.002-2.755-2.754 4.307-1.453.357-.36z" transform="translate(.65 .5)"/>
        <path fill="#979797" fill-rule="nonzero" d="M6.268 1.467l1.49 2.137h9.309l-.001 2.86-1.067 2.858V7.466H1.066v6.99l11.571-.001.004.004-1.063 1.063H0V1.467h6.268zm10.798 8.047v6.008h-1.853l-1.067-1.067H16l-.001-3.671.177-.059.702-.708.188-.503zM5.711 2.534H1.067L1.066 6.4h14.933L16 4.67H7.2L5.71 2.534z" transform="translate(.65 .5)"/>
        <path fill="#979797" d="M17.857 7.398L16.878 10.017 16.176 10.725 11.869 12.178 17.416 17.724 18.868 13.418 19.577 12.716 22.196 11.737zM9.804 18.806L10.788 19.79 13.935 16.643 12.951 15.659z" transform="translate(.65 .5)"/>
    </g>
</svg>
