<svg xmlns="http://www.w3.org/2000/svg" width="23" height="22" viewBox="0 0 23 22">
    <g fill="none" fill-rule="evenodd">
        <circle cx="16.112" cy="5.888" r="1.112" fill="#EEC7C7"/>
        <circle cx="6" cy="16" r="1.112" fill="#EEC7C7"/>
        <path fill="#DA8787" fill-rule="nonzero" d="M16 4.125c1.036 0 1.875.84 1.875 1.875 0 1.036-.84 1.875-1.875 1.875-.286 0-.557-.064-.799-.178l-7.51 7.491c.118.246.184.521.184.812 0 1.036-.84 1.875-1.875 1.875-1.036 0-1.875-.84-1.875-1.875 0-1.036.84-1.875 1.875-1.875.288 0 .561.065.805.181l7.508-7.487c-.12-.248-.188-.525-.188-.819 0-1.036.84-1.875 1.875-1.875zM6 15.375c-.345 0-.625.28-.625.625s.28.625.625.625.625-.28.625-.625-.28-.625-.625-.625zm10-10c-.345 0-.625.28-.625.625s.28.625.625.625.625-.28.625-.625-.28-.625-.625-.625z"/>
        <g fill="#DA8787">
            <path d="M6.139 0L5.393 1.997 4.858 2.537 1.575 3.644 5.803 7.873 6.911 4.59 7.451 4.054 9.448 3.308zM0 8.697L.75 9.448 3.149 7.049 2.399 6.299z" transform="translate(10 11.5)"/>
        </g>
    </g>
</svg>
