<svg xmlns="http://www.w3.org/2000/svg" width="16" height="16" viewBox="0 0 16 16">
    <g fill="none" fill-rule="evenodd">
        <path fill="#D8D8D8" d="M1.459 3.242l4.037-1.586 4.531 1.826 4.305-1.826.237 10.875-4.542 2.266-4.53-2.266-3.852 2.04z"/>
        <path fill="#979797" fill-rule="nonzero" d="M15.012.75v12.234l-4.985 2.266-4.53-2.266L.964 15.25V3.016L5.496.75l4.531 2.266L15.012.75zM5.496 1.763L1.871 3.575v10.209l3.625-1.813 4.55 2.275 4.06-1.845V2.157L10.008 4.02 5.496 1.763z"/>
        <path fill="#979797" fill-rule="nonzero" d="M6.043 1.203v11.328h-1V1.203zM10.574 3.242V14.57h-1V3.242z"/>
    </g>
</svg>
