<svg xmlns="http://www.w3.org/2000/svg" width="23" height="23" viewBox="0 0 23 23">
    <g fill="none" fill-rule="evenodd">
        <path fill="#D4E5D4" d="M5.494 16.803L6.503 15.82 7.75 16.492 8.001 17.356 7.75 18.112 6.972 18.626 5.75 18.112z" transform="translate(0 1)"/>
        <path fill="#87AB87" fill-rule="nonzero" d="M7.375 3.693v11.78l.037.014c.678.255 1.155.886 1.208 1.618l.004.07.001.067c0 1.035-.84 1.875-1.875 1.875-1.036 0-1.875-.84-1.875-1.875 0-.773.471-1.453 1.166-1.736l.063-.025.034-.012V3.693h1.237zM6.75 16.617c-.345 0-.625.28-.625.625s.28.625.625.625.625-.28.625-.625-.28-.625-.625-.625z" transform="translate(0 1)"/>
        <path fill="#D4E5D4" fill-opacity=".25" d="M10.75 3.237L14.742 12.014 6.758 12.014z" transform="translate(0 1) rotate(90 10.75 7.625)"/>
        <path fill="#87AB87" fill-rule="nonzero" d="M6.124 2.81l11.209 4.815-11.2 4.815-.009-9.63zm1.252 1.898l.004 5.835 6.787-2.917-6.792-2.918z" transform="translate(0 1)"/>
        <g fill="#87AB87">
            <path d="M6.139 0L5.393 1.997 4.858 2.537 1.575 3.644 5.803 7.873 6.911 4.59 7.451 4.054 9.448 3.308zM0 8.697L.75 9.448 3.149 7.049 2.399 6.299z" transform="translate(0 1) translate(9.216 11.716)"/>
        </g>
    </g>
</svg>
