<svg xmlns="http://www.w3.org/2000/svg" width="45" height="16" viewBox="0 0 45 16">
    <g fill="#E88285" fill-rule="evenodd">
        <path d="M.92 5.188l7.5-3.282 7.5 3.282-7.5 3.28z"/>
        <path d="M14.313 7.297L15.92 8l-7.5 3.281L.92 8l1.607-.703L8.42 9.875l5.893-2.578z"/>
        <path d="M14.313 10.11l1.607.703-7.5 3.28-7.5-3.28 1.607-.704 5.893 2.579 5.893-2.579z"/>
        <path fill-rule="nonzero" d="M21.45 13.156V9.154h2.334c1.025 0 1.849-.283 2.47-.848.622-.565.933-1.334.933-2.307 0-.948-.302-1.71-.906-2.288-.605-.578-1.445-.867-2.523-.867h-4.029v10.312h1.721zm2.1-5.462h-2.1V4.317h2.086c.617 0 1.087.143 1.408.43.322.287.483.704.483 1.252 0 .556-.166.978-.496 1.264-.33.287-.79.43-1.382.43zm8.304 5.462c.713 0 1.35-.093 1.91-.28.56-.187 1.023-.439 1.388-.756s.667-.698.906-1.141c.24-.443.411-.91.515-1.401.105-.492.157-1.02.157-1.585 0-1.66-.422-2.933-1.265-3.82-.843-.886-2.042-1.33-3.598-1.33h-3.064v10.313h3.05zm-.196-1.447h-1.134V4.304h1.16c1.026 0 1.826.285 2.4.854.573.57.86 1.514.86 2.835 0 2.478-1.095 3.716-3.286 3.716zm8.475 1.447V8.711h4.341V7.263h-4.341V4.317h4.85V2.844h-6.571v10.312h1.72z"/>
    </g>
</svg>
