<svg xmlns="http://www.w3.org/2000/svg" width="18" height="16" viewBox="0 0 18 16">
    <g fill="none" fill-rule="evenodd">
        <g transform="translate(-1 .216) translate(.987 1.946)">
            <path fill="#D8D8D8" d="M2.387 5.263L3.628 2.288 5.746 0.973 8.677 0.801 11.099 3.032 12.956 2.793 14.646 3.789 15.209 5.479 16.718 6.559 17.463 7.878 16.899 9.66 15.561 11.112 2.616 10.866 0.778 9.422 0.778 7.432z"/>
            <path fill="#979797" fill-rule="nonzero" d="M6.959 0C4.12.052 1.829 2.37 1.73 5.256l-.002.059-.044.025C.658 5.94 0 7.047 0 8.276c0 1.878 1.522 3.4 3.4 3.4h11.226c1.878 0 3.4-1.522 3.4-3.4l-.001-.087c-.033-1.297-.798-2.44-1.933-2.982l-.087-.04L16 5.115c-.169-1.796-1.641-3.196-3.439-3.196l-.116.001c-.386.014-.762.092-1.115.23l-.029.011-.008-.012C10.299.813 8.745 0 7.053 0H6.96zm.095 1.127c1.47 0 2.81.783 3.571 2.048l.29.481.482-.289c.35-.21.749-.322 1.164-.322 1.283 0 2.33 1.073 2.33 2.403l-.013.528.41.124c.95.288 1.611 1.168 1.611 2.176 0 1.255-1.017 2.273-2.273 2.273H3.4c-1.256 0-2.273-1.018-2.273-2.273 0-.922.554-1.742 1.388-2.095l.364-.154-.02-.393c-.003-.058-.005-.12-.005-.186 0-2.39 1.884-4.321 4.2-4.321z"/>
            <ellipse cx="7.212" cy="8.156" fill="#979797" fill-rule="nonzero" rx="1.465" ry="1.503"/>
            <ellipse cx="10.738" cy="8.156" fill="#979797" fill-rule="nonzero" rx="1.465" ry="1.503"/>
            <ellipse cx="8.978" cy="5.055" fill="#979797" fill-rule="nonzero" rx="1.465" ry="1.503"/>
        </g>
    </g>
</svg>
