<svg width="30" height="16" viewBox="0 0 30 10" fill="none" xmlns="http://www.w3.org/2000/svg">
    <path d="M2.13 9.83001C3.30637 9.83001 4.26 8.87637 4.26 7.70001C4.26 6.52364 3.30637 5.57001 2.13 5.57001C0.953634 5.57001 0 6.52364 0 7.70001C0 8.87637 0.953634 9.83001 2.13 9.83001Z" fill="#908F8F"/>
    <path d="M10.63 4.26C11.8064 4.26 12.76 3.30637 12.76 2.13C12.76 0.953634 11.8064 0 10.63 0C9.45363 0 8.5 0.953634 8.5 2.13C8.5 3.30637 9.45363 4.26 10.63 4.26Z" fill="#908F8F"/>
    <path d="M27.64 4.26C28.8164 4.26 29.77 3.30637 29.77 2.13C29.77 0.953634 28.8164 0 27.64 0C26.4636 0 25.51 0.953634 25.51 2.13C25.51 3.30637 26.4636 4.26 27.64 4.26Z" fill="#908F8F"/>
    <path d="M19.13 9.83001C20.3064 9.83001 21.26 8.87637 21.26 7.70001C21.26 6.52364 20.3064 5.57001 19.13 5.57001C17.9536 5.57001 17 6.52364 17 7.70001C17 8.87637 17.9536 9.83001 19.13 9.83001Z" fill="#908F8F"/>
    <path d="M2.12988 7.7L10.6299 2.13L19.1299 7.7L27.6399 2.13" stroke="#908F8F" stroke-width="1.5" stroke-miterlimit="10"/>
</svg>
