<svg xmlns="http://www.w3.org/2000/svg" width="12" height="13" viewBox="0 0 12 13">
    <g fill="#B1B1B1" fill-rule="nonzero">
        <path d="M6.13.93a5.75 5.75 0 1 1 0 11.5 5.75 5.75 0 0 1 0-11.5zm0 .896a4.854 4.854 0 1 0 0 9.708 4.854 4.854 0 0 0 0-9.708z"/>
        <path d="M6.487 8.174c0-.276.018-.479.053-.61.034-.13.134-.277.297-.44a5.99 5.99 0 0 0 .849-.997 1.91 1.91 0 0 0 .32-1.073c0-.546-.165-.971-.495-1.276-.331-.304-.795-.457-1.392-.457-.546 0-.995.147-1.349.441-.353.294-.525.686-.516 1.174l.014.027h.855c0-.291.097-.512.29-.662.195-.15.43-.225.706-.225.318 0 .563.087.734.26.172.172.257.42.257.74 0 .27-.063.501-.19.692a9.985 9.985 0 0 1-.642.819c-.31.279-.5.503-.573.673-.073.17-.11.474-.114.914h.896zm.032 1.865v-.946h-.937v.946h.937z"/>
    </g>
</svg>
