<svg xmlns="http://www.w3.org/2000/svg" width="19" height="19" viewBox="0 0 19 19">
    <g fill="none" fill-rule="evenodd">
        <path fill="#E03A3A" fill-rule="nonzero" d="M8.29 2.42L.901 14.364c-.29.47-.145 1.086.324 1.377.159.097.341.15.527.15l14.779-.01c.552 0 1-.448.999-1 0-.186-.052-.368-.15-.526L9.991 2.42c-.29-.47-.907-.615-1.377-.324-.131.082-.242.193-.324.324z" transform="translate(.5 .5)"/>
        <g fill="#FFF" stroke="#FFF">
            <path d="M.5.5H1.5V1.5H.5zM.5 2.75H1.5V6.531000000000001H.5z" transform="translate(.5 .5) translate(8.438 7.313)"/>
        </g>
    </g>
</svg>
