<svg xmlns="http://www.w3.org/2000/svg" width="18" height="18" viewBox="0 0 18 18">
    <g fill="none" fill-rule="evenodd">
        <path fill="#D8D8D8" d="M7.794 0L0 4.5 0 13.5 7.794 18 15.588 13.5 15.588 4.5z" transform="translate(1.125)"/>
        <path fill="#979797" d="M7.794 0L0 4.5v9L7.794 18l7.794-4.5v-9L7.794 0zM1.517 4.792l6.277-3.624 6.277 3.624-2.633 1.52-3.644-2.104L4.15 6.312l-2.633-1.52zm3.644 2.104l2.633-1.52 2.633 1.52-2.633 1.52-2.633-1.52zm-4.15 6.02V5.667l2.633 1.52v4.21L7.29 13.5v3.04l-6.277-3.624zM8.3 13.5l3.644-2.103v-4.21l2.633-1.52v7.249L8.3 16.54V13.5zm-3.644-2.688v-3.04l2.633 1.52v3.04l-2.633-1.52zM8.3 9.292l2.632-1.52v3.04L8.3 12.332v-3.04z" transform="translate(1.125)"/>
    </g>
</svg>
