<svg xmlns="http://www.w3.org/2000/svg" width="26" height="26" viewBox="0 0 26 26">
    <g fill="none" fill-rule="evenodd">
        <path fill="none" d="M1.768 17.017l2.344-3.71 3.125-3.126 3.125-1.366h2.344l3.125 1.813.781.972 1.563-.637 2.82.781 2.648 3.125 1.35 2.148-17.756.22z"/>
        <path fill="none" fill-rule="nonzero" d="M1.032 17.816l.545-1.044c2.74-5.161 6.532-8.543 9.679-8.543 1.61 0 3.406.886 5.161 2.488l.129.12.043-.019a4.34 4.34 0 0 1 1.517-.36l.133-.003c2.413 0 5.284 2.585 7.328 6.504l.447.857H1.032zM11.256 9.4c-2.472 0-5.723 2.786-8.233 7.177l-.04.067h8.027c1.268-2.335 2.839-4.185 4.424-5.235C13.943 10.1 12.479 9.4 11.256 9.4zm5.007 2.87l-.11.069c-1.29.83-2.622 2.318-3.756 4.234l-.042.071h7.104l-.106-.186c-.93-1.61-1.97-3.018-3.055-4.152l-.035-.036zm1.976-.643c-.262 0-.543.046-.84.14 1.3 1.415 2.518 3.182 3.566 5.192l-.17-.315h3.258l-.084-.144c-1.76-2.943-3.96-4.806-5.64-4.872z"/>
    </g>
</svg>
