<svg xmlns="http://www.w3.org/2000/svg" width="23" height="23" viewBox="0 0 23 23">
    <g fill="none" fill-rule="evenodd">
        <path fill="#D8E5F6" fill-opacity=".25" d="M10.997 4.12l5.93 3.73.024 4.562-.333.895-.138.14-4.912 1.657 1.528 1.528-1.994 1.007-5.964-2.797-.102-6.992 5.961-3.73zm4.851 11.123l-1.343.677-.167-.168 1.51-.51z" transform="translate(0 1)"/>
        <path fill="#7B9BCB" fill-rule="nonzero" d="M11 3.53l6.5 3.748v3.668l-.882 2.361-.138.14-.129.043.001-4.892-4.779 2.77v3.734l-.005.002.004.005.001 1.768 1.121-.646.841.84L11 18.53 4.5 14.79V7.278L11 3.53zM5.647 8.596v5.532l4.78 2.748v-5.523l-4.78-2.757zm11.852 5.952v.243l-2.617 1.506-.544-.545 2.957-.997.204-.207zM11 4.854L6.226 7.606l4.787 2.761 4.762-2.76L11 4.854z" transform="translate(0 1)"/>
        <path fill="#7B9BCB" fill-rule="nonzero" d="M18.421 12L21.729 15.308 19.732 16.054 19.192 16.59 18.085 19.873 13.856 15.644 17.139 14.537 17.675 13.997z" transform="translate(0 1)"/>
        <path fill="#7B9BCB" d="M12.301 20.697L13.052 21.448 15.451 19.049 14.7 18.299z" transform="translate(0 1)"/>
    </g>
</svg>
