<svg xmlns="http://www.w3.org/2000/svg" width="26" height="26" viewBox="0 0 26 26">
    <g fill="none" fill-rule="evenodd">
        <path fill="none" d="M1.177 17.032l2.258-3.711 3.353-3.398 3.02-1.29h1.958l2.084 1.021 2.603 2.104 2.595.402 4.091 3.143.576 1.948z"/>
        <path fill="none" fill-rule="nonzero" d="M10.589 7.852c1.985 0 4.243 1.307 6.368 3.605l.12.13.015-.006a3.65 3.65 0 0 1 1.117-.24l.136-.003c2.081 0 4.53 2.206 6.271 5.544l.447.856H.036l.546-1.046c2.834-5.341 6.757-8.84 10.007-8.84zm7.756 4.658c-.273 0-.574.063-.895.19l.078-.036c-.194.097-.391.189-.59.276l-.164.078c-1.84.763-3.904 1.13-6.194 1.096-2.26-.032-4.299-.419-6.112-1.161a24.072 24.072 0 0 0-2.436 3.535l-.045.078h21.11l-.131-.216c-1.444-2.322-3.203-3.78-4.538-3.839zm-7.756-3.486c-1.58 0-3.464 1.093-5.286 2.994 1.574.588 3.338.896 5.294.925 1.975.028 3.753-.259 5.338-.86-1.872-1.972-3.788-3.06-5.346-3.06z"/>
    </g>
</svg>
