<svg xmlns="http://www.w3.org/2000/svg" width="30" height="12" viewBox="0 0 30 12">
    <g fill="none" fill-rule="evenodd">
        <path fill="#979797" d="M22 4.4h-.018c2.25 0 5.146 2.546 7.26 6.6H.092C1.285 8.71 2.628 6.71 4.028 5.066c2.39.931 5.11 1.415 8.156 1.453C15.956 6.566 19.231 5.86 22 4.4zM12.192 0c2.251 0 4.893 1.531 7.406 4.218-2.172.805-4.637 1.19-7.4 1.155-2.74-.034-5.19-.442-7.35-1.222C7.342 1.506 9.958 0 12.192 0z" transform="translate(.121 .502)"/>
        <path fill="#C7C7C7" d="M21.981 4.405c2.25 0 5.147 2.544 7.26 6.595h-4.95.001-24.2c1.193-2.287 2.536-4.286 3.937-5.93 2.39.931 5.11 1.414 8.155 1.452 3.772.048 7.047-.657 9.816-2.116l-.019-.001z" transform="translate(.121 .502)"/>
    </g>
</svg>
