<svg xmlns="http://www.w3.org/2000/svg" width="26" height="26" viewBox="0 0 26 26">
    <g fill="none" fill-rule="evenodd">
        <path fill="none" d="M3.08 16.85l2.747-4.492 2.722-2.344 3.681-2.057 4.131.69 3.136 2.149 3.56 4.687.785 1.953z"/>
        <path fill="none" fill-rule="nonzero" d="M13.07 7.475c-4.07 0-8.245 3.715-11.133 9.707l-.405.84h23.077l-.405-.84C21.316 11.19 17.14 7.475 13.07 7.475zm.123 1.174c3.288.073 6.83 3.089 9.47 8.082l.063.12H3.414l.063-.12c2.674-5.056 6.27-8.084 9.593-8.084l.123.002z"/>
        <path fill="none" fill-rule="nonzero" d="M23.226 10.6v1.172h-8.935a2.5 2.5 0 0 0-2.124 1.18l-.111.19a3.672 3.672 0 0 1-3.013 1.753l-.12.002H.57v-1.172h8.353a2.5 2.5 0 0 0 2.123-1.18l.112-.189a3.672 3.672 0 0 1 3.013-1.754l.12-.002h8.935z"/>
    </g>
</svg>
