<svg xmlns="http://www.w3.org/2000/svg" width="30" height="12" viewBox="0 0 30 12">
    <g fill="none" fill-rule="evenodd">
        <path fill="#979797" d="M14.667 0c2.066 0 4.173.896 6.163 2.52h4.837v1.146l-3.573-.001.003.002h-5.35l-.14.003c-1.379.046-2.645.767-3.388 1.924l-.119.197-.06.1c-.52.84-1.413 1.373-2.394 1.437l-.197.006H4.287l.002-.002H.917V6.188h4.169C7.953 2.29 11.362 0 14.666 0z" transform="translate(.333 .502)"/>
        <path fill="#C7C7C7" d="M23.148 4.799c1.454 1.695 2.8 3.788 3.963 6.202H2.17c.427-.887.88-1.731 1.353-2.528l6.89.002.142-.002c1.381-.047 2.65-.77 3.395-1.929l.119-.197.06-.101c.52-.84 1.415-1.376 2.399-1.44l.197-.006 6.423-.001z" transform="translate(.333 .502)"/>
    </g>
</svg>
