<svg xmlns="http://www.w3.org/2000/svg" width="30" height="12" viewBox="0 0 30 12">
    <g fill="none" fill-rule="evenodd">
        <path fill="#979797" d="M18.283 3.757c1.848 1.816 3.65 4.281 5.194 7.243h-11.56c1.844-3.538 4.19-6.114 6.366-7.243z" transform="translate(.333 .5)"/>
        <path fill="#C7C7C7" d="M11.781.29c1.735 0 3.706.932 5.665 2.617-2.363 1.348-4.722 4.067-6.546 7.563l-.276.53H0C3.43 4.422 8.13.29 11.781.29zm8.887 2.833c2.685 0 6.143 3.04 8.665 7.877h-4.565l-.276-.53c-1.466-2.813-3.194-5.26-5.036-7.158l.22-.061c.34-.085.672-.128.992-.128z" transform="translate(.333 .5)"/>
    </g>
</svg>
