<svg width="22" height="22" viewBox="0 0 22 22" fill="#4D4C4C" xmlns="http://www.w3.org/2000/svg">
    <path d="M15.5 6.25H13.25V7.75H15.5C15.6981 7.75259 15.8874 7.83244 16.0275 7.97253C16.1676 8.11263 16.2474 8.30189 16.25 8.5V17.5C16.2474 17.6981 16.1676 17.8874 16.0275 18.0275C15.8874 18.1676 15.6981 18.2474 15.5 18.25H6.5C6.30189 18.2474 6.11263 18.1676 5.97253 18.0275C5.83244 17.8874 5.75259 17.6981 5.75 17.5V8.5C5.75259 8.30189 5.83244 8.11263 5.97253 7.97253C6.11263 7.83244 6.30189 7.75259 6.5 7.75H8.75V6.25H6.5C5.90326 6.25 5.33101 6.48705 4.90906 6.90901C4.4871 7.33097 4.25 7.90326 4.25 8.5V17.5C4.25 18.0967 4.4871 18.669 4.90906 19.091C5.33101 19.5129 5.90326 19.75 6.5 19.75H15.5C16.0967 19.75 16.669 19.5129 17.0909 19.091C17.5129 18.669 17.75 18.0967 17.75 17.5V8.5C17.75 7.90326 17.5129 7.33097 17.0909 6.90901C16.669 6.48705 16.0967 6.25 15.5 6.25Z"/>
    <path d="M10.2501 3.60002V13H11.7501V3.60002L13.5801 5.42002L14.4201 4.58002L11.0001 1.15002L7.58008 4.58002L8.42008 5.42002L10.2501 3.60002Z"/>
</svg>
