<svg width="22" height="22" viewBox="0 0 22 22" fill="none" xmlns="http://www.w3.org/2000/svg">
    <path d="M17.6 4.71001C16.3553 3.46664 14.7701 2.62004 13.0446 2.27717C11.319 1.9343 9.53049 2.11053 7.90503 2.78362C6.27957 3.4567 4.89002 4.59644 3.91199 6.05884C2.93396 7.52124 2.41132 9.2407 2.41003 11H0.310059L3.31006 14L6.31006 11H4.20996C4.21409 9.5976 4.63347 8.22782 5.41516 7.06346C6.19685 5.8991 7.30587 4.99231 8.60229 4.45748C9.89872 3.92265 11.3245 3.78373 12.6998 4.05825C14.0751 4.33278 15.3382 5.00844 16.33 6.00001C17.3215 6.99176 17.9972 8.25494 18.2717 9.63023C18.5462 11.0055 18.4074 12.4313 17.8726 13.7277C17.3377 15.0242 16.431 16.1332 15.2666 16.9148C14.1022 17.6965 12.7324 18.1159 11.33 18.12C10.4002 18.1228 9.4792 17.9402 8.62073 17.5831C7.76225 17.226 6.98347 16.7014 6.32996 16.04L5 17.29C6.67691 18.9172 8.92649 19.8197 11.2631 19.8026C13.5996 19.7855 15.8357 18.8502 17.4886 17.1986C19.1416 15.547 20.0787 13.3116 20.0977 10.9751C20.1166 8.6385 19.2158 6.38822 17.59 4.71001H17.6Z" fill="none"/>
    <path d="M10.5601 6.94V11.09L10.7201 11.47L13.6501 14.4L14.7101 13.34L12.0601 10.69V6.94H10.5601Z" fill="none"/>
</svg>
