<svg width="22" height="22" viewBox="0 0 22 22" fill="none" xmlns="http://www.w3.org/2000/svg">
    <path fill-rule="evenodd" clip-rule="evenodd" d="M18 16.12L16 14.27V9.37V9.27999C15.9968 8.08619 15.5666 6.93293 14.7871 6.02873C14.0076 5.12453 12.9303 4.52906 11.75 4.34999V2.87H10.25V4.34999C9.0697 4.52906 7.99238 5.12453 7.21289 6.02873C6.43341 6.93293 6.00321 8.08619 6 9.27999V14.28L4 16.13L18 16.12Z" fill="none"/>
    <path fill-rule="evenodd" clip-rule="evenodd" d="M11 19.12C11.5304 19.12 12.0391 18.9093 12.4142 18.5342C12.7893 18.1591 13 17.6504 13 17.12H9C9 17.6504 9.21074 18.1591 9.58582 18.5342C9.96089 18.9093 10.4696 19.12 11 19.12Z" fill="none"/>
</svg>
