<svg width="22" height="22" viewBox="0 0 22 22" fill="none" xmlns="http://www.w3.org/2000/svg">
    <path d="M15.25 12.59V11.59C15.2486 11.5502 15.2554 11.5106 15.27 11.4736C15.2846 11.4365 15.3066 11.4029 15.3347 11.3748C15.3629 11.3466 15.3966 11.3246 15.4336 11.31C15.4706 11.2954 15.5103 11.2886 15.55 11.29H18V8.07001C18 7.9374 17.9473 7.81022 17.8535 7.71645C17.7597 7.62269 17.6326 7.57001 17.5 7.57001H16V5.07001C16 4.9374 15.9473 4.81022 15.8535 4.71645C15.7597 4.62269 15.6326 4.57001 15.5 4.57001H6.5C6.36739 4.57001 6.24025 4.62269 6.14648 4.71645C6.05272 4.81022 6 4.9374 6 5.07001V7.57001H4.5C4.36739 7.57001 4.24025 7.62269 4.14648 7.71645C4.05272 7.81022 4 7.9374 4 8.07001V15.27C4 15.3496 4.03163 15.4259 4.08789 15.4821C4.14415 15.5384 4.22048 15.57 4.30005 15.57H6.19995C6.27952 15.57 6.35585 15.5384 6.41211 15.4821C6.46837 15.4259 6.5 15.3496 6.5 15.27V12.87C6.4986 12.8302 6.50544 12.7906 6.52002 12.7536C6.5346 12.7165 6.55658 12.6829 6.58472 12.6548C6.61286 12.6266 6.64656 12.6046 6.68359 12.59C6.72062 12.5754 6.76028 12.5686 6.80005 12.57H15.2L15.25 12.59Z" fill="none"/>
    <path d="M12.8102 15.27H14.5002V13.87C14.5016 13.8302 14.4947 13.7906 14.4802 13.7536C14.4656 13.7165 14.4436 13.6829 14.4155 13.6548C14.3873 13.6266 14.3536 13.6046 14.3166 13.59C14.2796 13.5754 14.2399 13.5686 14.2001 13.57H7.80023C7.76045 13.5686 7.7208 13.5754 7.68377 13.59C7.64674 13.6046 7.61304 13.6266 7.58489 13.6548C7.55675 13.6829 7.53478 13.7165 7.5202 13.7536C7.50562 13.7906 7.49878 13.8302 7.50018 13.87V17.13C7.49878 17.1698 7.50562 17.2094 7.5202 17.2464C7.53478 17.2835 7.55675 17.3171 7.58489 17.3452C7.61304 17.3734 7.64674 17.3954 7.68377 17.41C7.7208 17.4246 7.76045 17.4314 7.80023 17.43H14.2402L12.5901 15.79C12.5448 15.7481 12.5135 15.6932 12.5004 15.6329C12.4874 15.5725 12.4933 15.5095 12.5174 15.4527C12.5415 15.3958 12.5824 15.3477 12.6348 15.315C12.6872 15.2823 12.7486 15.2666 12.8102 15.27Z" fill="none"/>
    <path d="M19.75 16.25V12.25L16.25 12.27V16.26L14.5 16.27L18 19.75L21.5 16.25H19.75Z" fill="none"/>
</svg>
