<svg width="22" height="22" viewBox="0 0 22 22" fill="#4D4C4C" xmlns="http://www.w3.org/2000/svg">
    <path d="M18 16.25V12.25L14.5 12.27V16.26L12.75 16.27L16.25 19.75L19.75 16.25H18Z"/>
    <path d="M11.0601 15.27H13.2C13.2397 15.2714 13.2794 15.2646 13.3164 15.25C13.3534 15.2354 13.3871 15.2134 13.4153 15.1852C13.4434 15.1571 13.4654 15.1235 13.48 15.0864C13.4946 15.0494 13.5014 15.0098 13.5 14.97V11.57C13.4986 11.5302 13.5054 11.4906 13.52 11.4536C13.5346 11.4165 13.5566 11.3829 13.5847 11.3548C13.6129 11.3266 13.6466 11.3046 13.6836 11.29C13.7206 11.2754 13.7603 11.2686 13.8 11.27H16.25V5C16.25 4.73478 16.1447 4.48043 15.9572 4.29289C15.7696 4.10536 15.5152 4 15.25 4H9.25L5.75 7.5V17C5.75 17.2652 5.85531 17.5196 6.04285 17.7071C6.23038 17.8946 6.48478 18 6.75 18H13.08L10.85 15.78C10.8089 15.7381 10.781 15.685 10.7698 15.6274C10.7585 15.5697 10.7645 15.51 10.7869 15.4557C10.8092 15.4014 10.8469 15.3549 10.8955 15.3219C10.9441 15.2889 11.0013 15.2708 11.0601 15.27ZM9.93005 8.18H7.38L9.93005 5.63V8.18Z"/>
</svg>
