<svg width="22" height="22" viewBox="0 0 22 22" fill="none" xmlns="http://www.w3.org/2000/svg">
    <path d="M7 10.58V9.08002H4.25V6.33002H2.75V9.08002H0V10.58H2.75V13.33H4.25V10.58H7Z" fill="none"/>
    <path d="M13 11C14.933 11 16.5 9.433 16.5 7.5C16.5 5.567 14.933 4 13 4C11.067 4 9.5 5.567 9.5 7.5C9.5 9.433 11.067 11 13 11Z" fill="none"/>
    <path d="M13 12.17C11.6405 12.1696 10.2996 12.4867 9.08435 13.0961C7.86906 13.7055 6.81291 14.5903 6 15.68V18H20V15.68C19.1871 14.5903 18.1309 13.7055 16.9156 13.0961C15.7004 12.4867 14.3595 12.1696 13 12.17Z" fill="none"/>
</svg>
