<svg xmlns="http://www.w3.org/2000/svg" width="20" height="19" viewBox="0 0 20 19">
    <path fill="#4D4C4C" fill-rule="nonzero" d="M10.4 0c1.186 0 2.147.961 2.147 2.147l-.004.09 4.515 3.28a2.147 2.147 0 0 1 1.315 4.089l-1.719 5.287a2.147 2.147 0 0 1-3.468 2.52l-5.576-.001a2.147 2.147 0 1 1-3.47-2.53L2.427 9.604A2.148 2.148 0 1 1 3.74 5.517l4.513-3.28A2.147 2.147 0 0 1 10.4 0zm4.603 15.299l-.106.006a.96.96 0 0 0-.85.938l-.002.133a.96.96 0 1 0 .958-1.077zm-9.117-.12l-.11.007a.946.946 0 0 0-.22.053l-.052.017a.96.96 0 1 0 .382-.076zM8.663 3.412L4.757 6.247a2.148 2.148 0 0 1-1.083 3.354l1.47 4.52a2.136 2.136 0 0 1 .746-.129l-.19.007c.06-.004.12-.007.18-.007h.01a2.147 2.147 0 0 1 2.146 2.232h4.815l.005-.119a2.148 2.148 0 0 1 2.142-1.994h.01c.023 0 .047 0 .07.002l-.08-.002a2.178 2.178 0 0 1 .632.092l1.496-4.605a2.148 2.148 0 0 1-1.077-3.346l-3.905-2.837a2.146 2.146 0 0 1-1.435.86h-.023c-.09.014-.183.02-.276.02l.153-.006a2.172 2.172 0 0 1-.107.005H10.4a2.144 2.144 0 0 1-1.737-.883zm9.1 3.175a.957.957 0 0 0-.689.291l-.07.093a.96.96 0 0 0 .48 1.492l.038.014a.962.962 0 0 0 1.2-.93.96.96 0 0 0-.96-.96zm-14.726 0a.96.96 0 1 0 0 1.92.96.96 0 0 0 0-1.92zM10.4 1.187a.96.96 0 0 0-.84 1.426l.071.096c.18.25.466.398.779.398h-.006l.108-.006a.96.96 0 0 0-.112-1.913z"/>
</svg>
