<svg xmlns="http://www.w3.org/2000/svg" width="41" height="16" viewBox="0 0 41 16">
    <g fill="none" fill-rule="evenodd">
        <path fill="#3C87F5" d="M30.001 6h-.026c3.068 0 7.018 3.472 9.9 9h-19.8V15H.125c1.627-3.12 3.459-5.848 5.368-8.09 3.26 1.269 6.97 1.928 11.122 1.98 5.144.065 9.611-.897 13.386-2.889zM16.625 0c3.071 0 6.673 2.088 10.101 5.753-2.962 1.096-6.324 1.621-10.091 1.574C12.897 7.28 9.557 6.724 6.61 5.66 10.013 2.053 13.58 0 16.625 0z" transform="translate(.333 .2)"/>
        <path fill="#8AB9FF" d="M29.975 6.007c3.067 0 7.018 3.47 9.9 8.993H.125c1.627-3.118 3.458-5.844 5.368-8.085 3.259 1.268 6.969 1.927 11.122 1.98 5.143.064 9.61-.897 13.384-2.887l-.024-.001z" transform="translate(.333 .2)"/>
    </g>
</svg>
