<svg xmlns="http://www.w3.org/2000/svg" width="41" height="16" viewBox="0 0 41 16">
    <g fill="none" fill-rule="evenodd">
        <path fill="#EC7A7A" d="M20 0c2.818 0 5.69 1.222 8.405 3.436H35V5l-4.871-.001.003.003h-7.295l-.192.003c-1.901.064-3.646 1.07-4.654 2.68l-.127.213-.082.137c-.716 1.156-1.952 1.887-3.307 1.96l-.226.007H5.846l.003-.003H1.25V8.437h5.686C10.846 3.124 15.494 0 20 0z" transform="translate(.507 .2)"/>
        <path fill="#F6A5A5" d="M31.566 6.546C33.55 8.856 35.383 11.71 36.97 15H2.959c.583-1.209 1.199-2.359 1.844-3.444H14.2l.193-.003c1.905-.063 3.653-1.071 4.664-2.684l.128-.214.081-.138c.718-1.158 1.957-1.89 3.314-1.965l.227-.006h8.76z" transform="translate(.507 .2)"/>
    </g>
</svg>
