<svg xmlns="http://www.w3.org/2000/svg" width="41" height="16" viewBox="0 0 41 16">
    <g fill="none" fill-rule="evenodd">
        <path fill="#F7B500" d="M24.931 5.123c2.52 2.476 4.977 5.839 7.082 9.877H16.25c2.515-4.825 5.713-8.337 8.681-9.877z" transform="translate(.173 .2)"/>
        <path fill="#FFD460" d="M16.066.395c2.365 0 5.054 1.272 7.726 3.57-3.223 1.835-6.441 5.543-8.928 10.313l-.377.722H-.001C4.676 6.03 11.087.396 16.066.396zM28.184 4.26C31.845 4.259 36.56 8.403 40 15h-6.225l-.376-.722c-2-3.837-4.357-7.174-6.87-9.763.57-.17 1.123-.256 1.655-.256z" transform="translate(.173 .2)"/>
    </g>
</svg>
