<svg xmlns="http://www.w3.org/2000/svg" width="18" height="18" viewBox="0 0 18 18">
    <g fill="#4D4C4C" fill-rule="evenodd" transform="translate(.5 .5)">
        <path d="M8.5 2.017c3.58 0 6.483 2.903 6.483 6.483 0 3.58-2.903 6.483-6.483 6.483-3.58 0-6.483-2.903-6.483-6.483 0-3.58 2.903-6.483 6.483-6.483zm0 1.152c-2.944 0-5.33 2.387-5.33 5.331 0 2.944 2.386 5.33 5.33 5.33s5.33-2.386 5.33-5.33-2.386-5.33-5.33-5.33z"/>
        <path d="M14.119 7.78H17V8.933H14.119zM0 7.78H2.881V8.933H0z"/>
        <circle cx="8.5" cy="8.5" r="3.5"/>
        <path d="M7.059 14.983H9.94V16.136H7.059z" transform="rotate(90 8.5 15.56)"/>
        <path d="M7.059 0.864L9.941 0.864 9.941 2.017 7.059 2.017z" transform="rotate(90 8.5 1.44)"/>
    </g>
</svg>
