<svg width="18" height="18" viewBox="0 0 18 18" fill="none" xmlns="http://www.w3.org/2000/svg">
    <g fill="var(--color-theme-primary)">
        <path d="M9 2.5C12.6 2.5 15.5 5.4 15.5 9C15.5 12.6 12.6 15.5 9 15.5C5.4 15.5 2.5 12.6 2.5 9C2.5 5.4 5.4 2.5 9 2.5ZM9 3.7C6.1 3.7 3.7 6.1 3.7 9C3.7 11.9 6.1 14.3 9 14.3C11.9 14.3 14.3 11.9 14.3 9C14.3 6.1 11.9 3.7 9 3.7Z" />
        <path d="M17.5 8.2998H14.6V9.4998H17.5V8.2998Z" />
        <path d="M3.4 8.2998H0.5V9.4998H3.4V8.2998Z" />
        <path d="M9 12.5C10.933 12.5 12.5 10.933 12.5 9C12.5 7.067 10.933 5.5 9 5.5C7.067 5.5 5.5 7.067 5.5 9C5.5 10.933 7.067 12.5 9 12.5Z" />
        <path d="M9.60002 14.6001H8.40002V17.5001H9.60002V14.6001Z"/>
        <path d="M9.60002 0.5V3.4H8.40002V0.5H9.60002Z" />
    </g>
</svg>
