<svg width="18" height="18" viewBox="0 0 18 18" fill="none" xmlns="http://www.w3.org/2000/svg">
<g fill="#4D4C4C">
<path d="M9 2.51709C12.6 2.51709 15.5 5.41709 15.5 9.01709C15.5 12.6171 12.6 15.5171 9 15.5171C5.4 15.5171 2.5 12.6171 2.5 9.01709C2.5 5.41709 5.4 2.51709 9 2.51709ZM9 3.71709C6.1 3.71709 3.7 6.11709 3.7 9.01709C3.7 11.9171 6.1 14.3171 9 14.3171C11.9 14.3171 14.3 11.9171 14.3 9.01709C14.3 6.11709 11.9 3.71709 9 3.71709Z" />
<path d="M17.5 8.27979H14.6V9.47979H17.5V8.27979Z" />
<path d="M3.4 8.27979H0.5V9.47979H3.4V8.27979Z" />
<path d="M9.00005 6.81689C10.2 6.81689 11.2 7.81689 11.2 9.01689C11.2 10.2169 10.2 11.2169 9.00005 11.2169C7.80005 11.2169 6.80005 10.2169 6.80005 9.01689C6.80005 7.81689 7.80005 6.81689 9.00005 6.81689ZM9.00005 8.01689C8.40005 8.01689 8.00005 8.51689 8.00005 9.01689C8.00005 9.51689 8.50005 10.0169 9.00005 10.0169C9.50005 10.0169 10 9.51689 10 9.01689C10 8.51689 9.60005 8.01689 9.00005 8.01689Z" />
<path d="M8.35933 17.5356L9.55933 17.5356L9.55932 14.6356L8.35932 14.6356L8.35933 17.5356Z" />
<path d="M8.34065 3.417L9.54065 3.41699L9.54064 0.516992L8.34064 0.516995L8.34065 3.417Z" />
</g>
<defs>
</defs>
</svg>
