<svg width="18" height="18" viewBox="0 0 18 18" fill="none" xmlns="http://www.w3.org/2000/svg">
<path fill-rule="evenodd" clip-rule="evenodd" d="M9 2.5C12.6 2.5 15.5 5.4 15.5 9C15.5 12.6 12.6 15.5 9 15.5C5.4 15.5 2.5 12.6 2.5 9C2.5 5.4 5.4 2.5 9 2.5ZM9 3.7C6.1 3.7 3.7 6.1 3.7 9C3.7 11.9 6.1 14.3 9 14.3C11.9 14.3 14.3 11.9 14.3 9C14.3 6.1 11.9 3.7 9 3.7Z" fill="#4D4C4C"/>
<path d="M17.5 8.2627H14.6V9.4627H17.5V8.2627Z" fill="#4D4C4C"/>
<path d="M3.4 8.2627H0.5V9.4627H3.4V8.2627Z" fill="#4D4C4C"/>
<path d="M8.35933 17.5186L9.55933 17.5186L9.55932 14.6186L8.35932 14.6186L8.35933 17.5186Z" fill="#4D4C4C"/>
<path d="M8.34065 3.39991L9.54065 3.3999L9.54064 0.499902L8.34064 0.499905L8.34065 3.39991Z" fill="#4D4C4C"/>
</svg>
