<svg xmlns="http://www.w3.org/2000/svg" width="25" height="12" viewBox="0 0 25 12">
    <g fill="#4D4C4C">
        <path d="M20.827 9.133l1.208 1.678H1.552l1.045-1.538c.592-.192 1.186-.365 1.78-.52l-.592.875h15.941l-.701-.975c.599.143 1.2.302 1.802.48zM8.628.385c.236-.347.71-.438 1.057-.202.073.05.136.112.188.183l2.75 3.789 2.107-2.013c.294-.28.755-.28 1.047-.003l.028.028c.025.025.047.052.068.08l3.268 4.54c-.57-.129-1.139-.244-1.706-.343l-2.239-3.11-2.735 2.612L9.27 1.548 5.893 6.52c-.562.109-1.122.233-1.682.373z" transform="translate(.787 .586)"/>
        <path d="M23.463 8.505l.523.194-.353.933C15.835 6.682 8.253 6.62.863 9.437l-.493.192L0 8.702c7.615-3.04 15.444-3.104 23.463-.197z" transform="translate(.787 .586)"/>
    </g>
</svg>
