<svg xmlns="http://www.w3.org/2000/svg" width="25" height="12" viewBox="0 0 25 12">
    <g fill="#4D4C4C">
        <path d="M3.794 7.51c5.163-1.43 10.42-1.47 15.778-.121l2.463 3.422H1.552zM8.628.384c.236-.347.71-.438 1.057-.202.073.05.136.112.188.183l2.75 3.789 2.107-2.013c.294-.28.755-.28 1.047-.003l.028.028c.025.025.047.052.068.08l2.812 3.909c-4.753-1.03-9.436-.996-14.043.104z" transform="translate(.787 .586)"/>
        <path d="M23.463 8.505l.523.194-.353.933C15.835 6.682 8.253 6.62.863 9.437l-.493.192L0 8.702c7.615-3.04 15.444-3.104 23.463-.197z" transform="translate(.787 .586)"/>
    </g>
</svg>
