<svg width="18" height="18" viewBox="0 0 18 18" fill="none" xmlns="http://www.w3.org/2000/svg">
<path d="M10.242 5.78957L9.44489 6.58543L11.2989 8.43686H4.43446V9.72257H11.1369L9.44617 11.4146L10.242 12.2104L13.4512 9L10.242 5.78957Z" fill="#1F4782"/>
<path d="M9 0C4.02943 0 0 4.02943 0 9C0 13.9706 4.02943 18 9 18C13.9706 18 18 13.9706 18 9C18 4.02943 13.9706 0 9 0ZM9 1.125C13.3496 1.125 16.875 4.65043 16.875 9C16.875 13.3496 13.3496 16.875 9 16.875C4.65043 16.875 1.125 13.3496 1.125 9C1.125 4.65043 4.65043 1.125 9 1.125Z" fill="#1F4782"/>
</svg>
