<svg width="23" height="17" viewBox="0 0 23 17" fill="none" xmlns="http://www.w3.org/2000/svg">
<g clip-path="url(#clip0_122_88)">
<path fill-rule="evenodd" clip-rule="evenodd" d="M15.88 13.66C15.5022 13.9741 15.0934 14.2488 14.66 14.48H14.59C14.3956 14.582 14.1952 14.6721 13.99 14.75H13.89C13.69 14.8238 13.4864 14.8872 13.28 14.94C12.7042 15.1042 12.1086 15.1883 11.5099 15.19C9.71525 15.1874 7.99481 14.4732 6.72576 13.2042C5.45671 11.9351 4.7426 10.2147 4.73995 8.42001H7.33995L3.86995 4.19L0.449951 8.5H3.05995C3.0626 10.7535 3.95898 12.914 5.55247 14.5075C7.14595 16.101 9.30642 16.9974 11.56 17C12.1417 16.9978 12.7216 16.9341 13.2899 16.81H13.43C13.7 16.74 13.96 16.68 14.21 16.59L14.5 16.49C14.7075 16.4137 14.9111 16.3269 15.11 16.23L15.41 16.09C15.63 15.9786 15.8436 15.8551 16.0499 15.72L16.24 15.61C16.51 15.43 16.77 15.23 17.03 15.02L15.93 13.68L15.88 13.66Z" fill="white"/>
<path fill-rule="evenodd" clip-rule="evenodd" d="M20.0098 8.5C20.0045 6.24728 19.1073 4.08835 17.5144 2.49543C15.9215 0.902514 13.7625 0.00528189 11.5098 0C10.9253 0.00335807 10.3426 0.0636431 9.76981 0.18C9.46248 0.248061 9.15877 0.331499 8.85981 0.43L8.55981 0.540001L7.95981 0.790001L7.6498 0.940002C7.4398 1.05 7.22981 1.17 7.02981 1.3L6.8298 1.42001C6.55926 1.59874 6.29886 1.79236 6.0498 2L7.1498 3.34C7.5196 3.01737 7.92567 2.73883 8.35981 2.51H8.4398L9.02981 2.25H9.13981C9.33562 2.17138 9.53598 2.1046 9.73981 2.05C10.3204 1.8939 10.9186 1.81324 11.5198 1.81001C12.4075 1.81001 13.2866 1.98486 14.1067 2.32458C14.9269 2.6643 15.6721 3.16224 16.2999 3.78996C16.9276 4.41769 17.4255 5.1629 17.7652 5.98306C18.1049 6.80322 18.2798 7.68226 18.2798 8.57H15.6798L19.1498 12.8L22.6198 8.57L20.0098 8.5Z" fill="white"/>
</g>
<defs>
<clipPath id="clip0_122_88">
<rect width="22.2" height="17" fill="white" transform="translate(0.399902)"/>
</clipPath>
</defs>
</svg>
