<svg viewBox="0 0 83.7 70.42">
  <path d="M467.6,413.49c-13.87,7.91-27.88,15.68-41.81,23.53-14-7.75-27.88-15.68-41.89-23.45,13.92-7.81,28-15.87,41.89-23.45C439.81,397.82,453.58,405.78,467.6,413.49Z" transform="translate(-383.9 -390.12)"/>
  <path d="M394.15,431.29c10.61,5.79,21,11.78,31.56,17.64,10.59-5.81,21-11.81,31.56-17.64,3.52,1.83,6.84,3.86,10.33,5.72-13.9,7.88-27.91,15.65-41.81,23.53-14-7.78-27.85-15.7-41.89-23.45C387.25,435.1,390.73,433.23,394.15,431.29Z" transform="translate(-383.9 -390.12)"/>
</svg>
