<?xml version="1.0" encoding="UTF-8"?>
<svg width="18px" height="16px" viewBox="0 0 18 16" version="1.1" xmlns="http://www.w3.org/2000/svg" xmlns:xlink="http://www.w3.org/1999/xlink">
    <!-- Generator: Sketch 60.1 (88133) - https://sketch.com -->
    <title>Group 6</title>
    <desc>Created with Sketch.</desc>
    <g id="Page-1" stroke="none" stroke-width="1" fill="none" fill-rule="evenodd" opacity="0.7">
        <g id="Tooltip" transform="translate(-1607.000000, -792.000000)" fill="#000000" fill-rule="nonzero">
            <g id="Group-6" transform="translate(1607.031045, 792.551283)">
                <path d="M11.2802229,9.32587341e-14 C11.6080273,9.32587341e-14 11.9280339,0.109852996 12.2403725,0.329396532 C12.5528411,0.549037541 12.7676409,0.810364854 12.8851943,1.11334598 L12.8851943,1.11334598 L13.3582023,2.37485217 L15.4361167,2.37485217 C16.0916931,2.37485217 16.6512254,2.60680737 17.1151033,3.07058781 C17.5787537,3.53440074 17.810579,4.09403044 17.810579,4.74960686 L17.810579,4.74960686 L17.810579,13.061297 C17.810579,13.716906 17.5786238,14.2766006 17.1148758,14.7402836 C16.6509654,15.2041615 16.0914657,15.4361167 15.4358893,15.4361167 L15.4358893,15.4361167 L2.37475469,15.4361167 C1.71914578,15.4361167 1.15954857,15.2041615 0.695670659,14.7402836 C0.23189022,14.2766006 -4.79616347e-13,13.716906 -4.79616347e-13,13.061297 L-4.79616347e-13,13.061297 L-4.79616347e-13,4.74960686 C-4.79616347e-13,4.09403044 0.23189022,3.53440074 0.695670659,3.07058781 C1.15954857,2.60680737 1.71911329,2.37485217 2.37475469,2.37485217 L2.37475469,2.37485217 L4.45266911,2.37485217 L4.92574206,1.11334598 C5.04326299,0.810364854 5.2580953,0.549037541 5.57043391,0.329396532 C5.88277252,0.109852996 6.20284406,9.32587341e-14 6.53061603,9.32587341e-14 L6.53061603,9.32587341e-14 Z M8.90533823,4.74980181 C7.76119052,4.74980181 6.78255336,5.15636512 5.96936177,5.96965419 C5.15620266,6.78294326 4.74950939,7.76141796 4.74950939,8.90569563 C4.74950939,10.0496159 5.1560727,11.0284155 5.96936177,11.8415421 C6.78265083,12.6547987 7.76115803,13.0615245 8.90533823,13.0615245 C10.0495184,13.0615245 11.0280906,12.6547987 11.8413147,11.8415421 C12.6546038,11.028318 13.0611996,10.0496159 13.0611996,8.90569563 C13.0611996,7.76141796 12.6545713,6.78284578 11.8413147,5.96965419 C11.0280906,5.15646259 10.0494859,4.74980181 8.90533823,4.74980181 Z M15.4221322,4.0121582 C14.9077849,4.0121582 14.490824,4.42911911 14.490824,4.94346646 C14.490824,5.4578138 14.9077849,5.87477471 15.4221322,5.87477471 C15.9364796,5.87477471 16.3534405,5.4578138 16.3534405,4.94346646 C16.3534405,4.42911911 15.9364796,4.0121582 15.4221322,4.0121582 Z" id="Combined-Shape"></path>
                <path d="M8.90533823,6.23387322 C8.16937839,6.23387322 7.5401199,6.49516805 7.01753025,7.01782267 C6.49494061,7.54041232 6.23364578,8.16957334 6.23364578,8.90569563 C6.23364578,9.64152551 6.49494061,10.270784 7.01753025,10.7933736 C7.5401199,11.3158658 8.1693459,11.5771606 8.90533823,11.5771606 C9.64120059,11.5771606 10.2705241,11.3158658 10.7931137,10.7933736 C11.3157034,10.270784 11.5770307,9.641558 11.5770307,8.90569563 C11.5770307,8.16960583 11.3157034,7.54044481 10.7931137,7.01782267 C10.2705566,6.49520054 9.64120059,6.23387322 8.90533823,6.23387322 Z" id="Path"></path>
            </g>
        </g>
    </g>
</svg>