<svg xmlns="http://www.w3.org/2000/svg" width="14" height="14" viewBox="0 0 14 14">
    <g fill="#4D4C4C">
        <path d="M13 0L13 4.632 11.781 4.632 11.781 1.219 8.328 1.219 8.328 0z" transform="translate(.73 .5)"/>
        <path d="M4.672 0L4.672 4.632 3.453 4.632 3.453 1.219 0 1.219 0 0z" transform="translate(.73 .5) matrix(-1 0 0 1 4.672 0)"/>
        <path d="M13 8.368L13 13 11.781 13 11.781 9.587 8.328 9.587 8.328 8.368z" transform="translate(.73 .5) matrix(1 0 0 -1 0 21.368)"/>
        <path d="M4.672 8.368L4.672 13 3.453 13 3.453 9.587 0 9.587 0 8.368z" transform="translate(.73 .5) rotate(180 2.336 10.684)"/>
        <path d="M6.5 3.575c-1.616 0-2.925 1.31-2.925 2.925 0 1.616 1.31 2.925 2.925 2.925 1.616 0 2.925-1.31 2.925-2.925 0-1.616-1.31-2.925-2.925-2.925zm0 1.219c.942 0 1.706.764 1.706 1.706S7.442 8.206 6.5 8.206 4.794 7.442 4.794 6.5 5.558 4.794 6.5 4.794z" transform="translate(.73 .5)"/>
    </g>
</svg>
