<svg version="1.1" viewBox="0 0 56 56"  xmlns="http://www.w3.org/2000/svg" xmlns:xlink="http://www.w3.org/1999/xlink" >
	<path
		d="M52.662,55.979c-0.886,0-1.719-0.347-2.345-0.973L29.133,33.822c-0.317-0.315-0.731-0.475-1.146-0.475s-0.829,0.159-1.145,0.475L5.657,55.007c-0.626,0.626-1.458,0.973-2.344,0.973c-0.885,0-1.717-0.347-2.344-0.973c-1.292-1.291-1.292-3.396,0-4.688l21.186-21.184c0.633-0.633,0.633-1.659,0-2.291L0.969,5.659c-1.292-1.292-1.292-3.396,0-4.688C1.596,0.344,2.428,0,3.313,0c0.885,0,1.718,0.344,2.344,0.971l21.185,21.185c0.316,0.317,0.73,0.476,1.145,0.476s0.829-0.159,1.146-0.476L50.317,0.971C50.943,0.344,51.776,0,52.662,0c0.885,0,1.718,0.344,2.345,0.971c1.289,1.292,1.289,3.396,0,4.688L33.82,26.844c-0.632,0.632-0.632,1.658,0,2.291l21.187,21.184c1.289,1.293,1.289,3.397,0,4.688C54.38,55.633,53.547,55.979,52.662,55.979z"
	/>
</svg>
