<svg version="1.1" viewBox="0 0 2 2">
	<path fill='#FF242A' d="M1,1l-0.25-0.96a1,1,0,0,1,0.5,0z"/>
	<path fill= '#FF5728' d="M1,1l0.25-0.96a1,1,0,0,1,0.46,0.25z"/>
	<path fill='#FF9126' d="M1,1l0.71-0.71a1,1,0,0,1,0.25,0.46z"/>
	<path fill='#FFCB18' d="M1,1l0.96-0.25a1,1,0,0,1,0,0.5z"/>
	<path fill= '#FFFF0C' d="M1,1l0.96,0.25a1,1,0,0,1,-0.25,0.46z"/>
	<path fill='#8BDB4C' d="M1,1l0.71,0.71a1,1,0,0,1-0.46,0.25z"/>
	<path fill='#18BF5B' d="M1,1l0.25,0.96a1,1,0,0,1,-0.5,0z"/>
	<path fill= '#1CC2B0' d="M1,1l-0.25,0.96a1,1,0,0,1-0.46-0.25z"/>
	<path fill='#496DC5' d="M1,1l-0.710.71a1,1,0,0,1,-0.25,-0.46z"/>
	<path fill='#8137A8' d="M1,1l-0.96,0.25a1,1,0,0,1,0,-0.5z"/>
	<path fill= '#A35BB7' d="M1,1l-0.96,-0.25a1,1,0,0,1,0.25,-0.46z"/>
	<path fill='#D240AA' d="M1,1l-0.71-0.71a1,1,0,0,1,0.46-0.25z"/>
	<circle fill='white' cx='1' cy='1' r="0.5"/>
</svg>
