<svg width="13.5" height="13.5" viewBox="0 0 14 14">
  <mask id="path-1-outside-1_815_3067" maskUnits="userSpaceOnUse" x="0" y="0" width="12" height="12" fill="black">
    <rect fill="white" width="12" height="12"/>
    <path d="M1 3C1 1.89543 1.89543 1 3 1H9C10.1046 1 11 1.89543 11 3H10C10 2.44772 9.55229 2 9 2H3C2.44772 2 2 2.44771 2 3V9C2 9.55229 2.44771 10 3 10L3 11C1.89543 11 1 10.1046 1 9V3Z"/>
  </mask>
  <path d="M1 3C1 1.89543 1.89543 1 3 1H9C10.1046 1 11 1.89543 11 3H10C10 2.44772 9.55229 2 9 2H3C2.44772 2 2 2.44771 2 3V9C2 9.55229 2.44771 10 3 10L3 11C1.89543 11 1 10.1046 1 9V3Z" />
  <path d="M11 3V3.15H11.15V3H11ZM10 3H9.85V3.15H10V3ZM3 10H3.15V9.85H3V10ZM3 11V11.15H3.15V11H3ZM3 0.85C1.81259 0.85 0.85 1.81259 0.85 3H1.15C1.15 1.97827 1.97827 1.15 3 1.15V0.85ZM9 0.85H3V1.15H9V0.85ZM11.15 3C11.15 1.81259 10.1874 0.85 9 0.85V1.15C10.0217 1.15 10.85 1.97827 10.85 3H11.15ZM10 3.15H11V2.85H10V3.15ZM10.15 3C10.15 2.36487 9.63513 1.85 9 1.85V2.15C9.46944 2.15 9.85 2.53056 9.85 3H10.15ZM9 1.85H3V2.15H9V1.85ZM3 1.85C2.36487 1.85 1.85 2.36487 1.85 3H2.15C2.15 2.53056 2.53056 2.15 3 2.15V1.85ZM1.85 3V9H2.15V3H1.85ZM1.85 9C1.85 9.63513 2.36487 10.15 3 10.15V9.85C2.53056 9.85 2.15 9.46944 2.15 9H1.85ZM3.15 11L3.15 10H2.85L2.85 11H3.15ZM0.85 9C0.85 10.1874 1.81259 11.15 3 11.15V10.85C1.97827 10.85 1.15 10.0217 1.15 9H0.85ZM0.85 3V9H1.15V3H0.85Z" mask="url(#path-1-outside-1_815_3067)"/>
  <rect x="4.65" y="4.65" width="8.7" height="8.7" rx="1.35" stroke="current" stroke-width="1.3" fill="white" />
</svg>
