<?xml version="1.0" encoding="UTF-8"?>
<svg width="20px" height="20px" viewBox="0 0 20 20" version="1.1" xmlns="http://www.w3.org/2000/svg" xmlns:xlink="http://www.w3.org/1999/xlink">
    <!-- Generator: Sketch 58 (84663) - https://sketch.com -->
    <title>Group 3</title>
    <desc>Created with Sketch.</desc>
    <g id="Annotation-Creates-/-Edits" stroke="none" stroke-width="1" fill="none" fill-rule="evenodd">
        <g id="Create-Length-First-Line-Set" transform="translate(-520.000000, -442.000000)" fill-rule="nonzero">
            <g id="Group-3" transform="translate(521.000000, 443.000000)">
                <circle id="Oval-2" stroke="#000000" fill="#FFFFFF" cx="9" cy="9" r="9"></circle>
                <path d="M13.1685268,7.20758929 C13.272694,7.31175647 13.3247768,7.4382433 13.3247768,7.58705357 C13.3247768,7.73586384 13.272694,7.86235067 13.1685268,7.96651786 L8.36941964,12.765625 C8.26525246,12.8697922 8.13876563,12.921875 7.98995536,12.921875 C7.84114509,12.921875 7.71465826,12.8697922 7.61049107,12.765625 L4.83147321,9.98660714 C4.72730603,9.88243996 4.67522321,9.75595313 4.67522321,9.60714286 C4.67522321,9.45833259 4.72730603,9.33184576 4.83147321,9.22767857 L5.59040179,8.46875 C5.69456897,8.36458281 5.8210558,8.3125 5.96986607,8.3125 C6.11867634,8.3125 6.24516317,8.36458281 6.34933036,8.46875 L7.98995536,10.1149554 L11.6506696,6.44866071 C11.7548368,6.34449353 11.8813237,6.29241071 12.0301339,6.29241071 C12.1789442,6.29241071 12.305431,6.34449353 12.4095982,6.44866071 L13.1685268,7.20758929 Z" id="" fill="#000000"></path>
            </g>
        </g>
    </g>
</svg>