<svg xmlns="http://www.w3.org/2000/svg" xmlns:xlink="http://www.w3.org/1999/xlink" width="15" height="19" viewBox="0 0 15 19">
    <defs>
        <path id="265pik2pha" d="M0 0L15 0 15 19 0 19z"/>
    </defs>
    <g fill="none" fill-rule="evenodd">
        <g>
            <g>
                <g transform="translate(-1010 -645) translate(1010 645)">
                    <mask id="egm5645hqb" fill="#fff">
                        <use xlink:href="#265pik2pha"/>
                    </mask>
                    <path fill="#FFF" d="M13.276 15.076c0 1.21-.99 2.2-2.2 2.2H3.924c-1.21 0-2.2-.99-2.2-2.2V3.925c0-1.21.99-2.201 2.2-2.201h4.041v2.8c0 1.216.985 2.2 2.201 2.2h3.11v8.352zM9.828.62C9.414.207 8.862 0 8.276 0H3.6C1.612 0 0 1.612 0 3.6v11.8C0 17.389 1.612 19 3.6 19h7.8c1.988 0 3.6-1.611 3.6-3.6V6.449c0-.622-.257-1.215-.71-1.64L9.828.62z" mask="url(#egm5645hqb)"/>
                </g>
            </g>
        </g>
    </g>
</svg>
