<?xml version="1.0" encoding="UTF-8"?>
<svg width="20px" height="20px" viewBox="0 0 20 20" version="1.1" xmlns="http://www.w3.org/2000/svg" xmlns:xlink="http://www.w3.org/1999/xlink">
    <!-- Generator: Sketch 61.2 (89653) - https://sketch.com -->
    <title>Loading 3</title>
    <desc>Created with Sketch.</desc>
    <g id="Loading-3" stroke="none" stroke-width="1" fill="none" fill-rule="evenodd">
        <path d="M10,0 C15.5228475,0 20,4.4771525 20,10 C20,15.5228475 15.5228475,20 10,20 C4.4771525,20 0,15.5228475 0,10 C0,4.4771525 4.4771525,0 10,0 Z M10,3.2 C6.2444637,3.2 3.2,6.2444637 3.2,10 C3.2,13.7555363 6.2444637,16.8 10,16.8 C13.7555363,16.8 16.8,13.7555363 16.8,10 C16.8,6.2444637 13.7555363,3.2 10,3.2 Z" id="Oval" fill="#D2D2D2" fill-rule="nonzero"></path>
        <path d="M10,5.32907052e-15 C15.8668715,5.32907052e-15 20.2359056,4.89314723 19.9985518,10.4680589 C19.9609639,11.3509147 19.2147969,12.0361397 18.3319411,11.9985518 C17.4490853,11.9609639 16.7638603,11.2147969 16.8014482,10.3319411 C16.9634517,6.52683823 13.9929566,3.2 10,3.2 C9.1163444,3.2 8.4,2.4836556 8.4,1.6 C8.4,0.7163444 9.1163444,5.32907052e-15 10,5.32907052e-15 Z" id="Path" fill="var(--color-theme-primary)" fill-rule="nonzero"></path>
    </g>
</svg>
