<?xml version="1.0" encoding="UTF-8"?>
<svg width="23px" height="17px" viewBox="0 0 23 17" version="1.1" xmlns="http://www.w3.org/2000/svg" xmlns:xlink="http://www.w3.org/1999/xlink">
    <!-- Generator: Sketch 61.2 (89653) - https://sketch.com -->
    <title>Combined Shape</title>
    <desc>Created with Sketch.</desc>
    <g id="Final-UI---Cut-&amp;-Fill" stroke="none" stroke-width="1" fill="none" fill-rule="evenodd">
        <g id="Stage-2---Cesium-Check-(2D-icon-not-pixel-perfect)" transform="translate(-17.000000, -16.000000)" fill="#B1B1B1">
            <path d="M39.1622359,16.0004708 L39.1622359,33 L34.6216527,33 L34.616,30.034 L27.3109371,30.00225 L31.5172731,25.5487594 L34.609,25.53 L34.6021157,20.7383069 L29.089391,26.4605245 L25.3938412,30.3479134 L24.9207167,30.8386918 C24.8406857,30.916369 24.7583008,30.9905154 24.6735621,31.0634848 C23.4013043,32.1615574 21.7430146,32.826521 19.9293706,32.826521 C18.8866135,32.826521 17.8968181,32.6064357 17,32.2109883 L24.8854089,23.9513168 L27.5982249,21.1255158 C27.5982249,21.1255158 30.1474481,18.4750768 30.3275179,18.2820609 L30.3286949,18.2808839 C31.6539143,16.8768104 33.5322893,16 35.6142727,16 L39.1622359,16.0004708 Z" id="Combined-Shape"></path>
        </g>
    </g>
</svg>