<?xml version="1.0" encoding="utf-8"?>
<svg version="1.1" x="0px" y="0px" viewBox="0 0 85 85">
<g>
	<path d="M43.6,48.4c-0.1-0.3-0.4-0.5-0.8-0.5h-3.3v-5.8c0-0.5-0.4-0.8-0.8-0.8h-3.3c-0.5,0-0.8,0.4-0.8,0.8v5.8h-3.3c-0.3,0-0.6,0.2-0.8,0.5c-0.1,0.3-0.1,0.7,0.2,0.9l5.8,5.8c0.2,0.2,0.4,0.2,0.6,0.2c0.2,0,0.4-0.1,0.6-0.2l5.8-5.8C43.7,49.1,43.8,48.7,43.6,48.4z"/>
	<path d="M53.7,34.4l-3.8-3.8c-0.5-0.5-1.4-0.8-2-0.8h-11c-0.7,0-1.2,0.5-1.2,1.2v9.5h1.6v-9.1h9.4v5.1c0,0.7,0.5,1.2,1.2,1.2H53v12.6h-9.1l-1.6,1.6h11.1c0.7,0,1.2-0.5,1.2-1.2V36.4C54.6,35.7,54.2,34.8,53.7,34.4z M48.3,36v-4.6c0.2,0.1,0.4,0.2,0.5,0.3l3.8,3.8c0.1,0.1,0.2,0.3,0.3,0.5H48.3z"/>
	<path d="M41.5,45.6C41.5,45.6,41.5,45.6,41.5,45.6c-0.1-0.1-0.2-0.2-0.3-0.1c-0.3,0.1-0.5,0.3-0.7,0.4v0.8c0.2-0.3,0.5-0.5,0.8-0.8c-0.3,0.4-0.5,0.8-0.7,1.1h1c0.3-0.5,0.7-1,1.1-1.7c1.3-0.5,3.1-0.8,4.8-1c1,0.5,2.2,0.9,3,0.9c0.7,0,0.8-0.2,0.9-0.5v0c0,0,0,0,0,0c0.1-0.3,0.1-0.5,0-0.6c-0.3-0.5-1.4-0.6-2.2-0.6c-0.4,0-0.9,0-1.4,0.1c-0.4-0.2-0.7-0.4-1-0.7c-0.7-0.6-1.4-1.6-1.8-2.9c0.1-0.8,0.2-1.6,0.2-2.4c0-0.1,0-0.2,0-0.4c0,0,0-0.1,0-0.1c0,0,0-0.1,0-0.1c0.1-0.4,0-0.7-0.1-0.8C44.9,36,44.7,36,44.6,36h0h-0.3c-0.2,0-0.4,0.2-0.5,0.5c-0.2,0.8-0.1,2.2,0.3,3.5c-0.3,1-0.7,2.1-1.3,3.2C42.3,44.2,41.9,45,41.5,45.6z M50.9,44.5C50.9,44.5,50.9,44.5,50.9,44.5c0,0-0.1,0-0.2,0c-0.4,0-0.9-0.1-1.5-0.3C50.5,44.2,50.8,44.5,50.9,44.5z M44.5,36.6C44.5,36.6,44.5,36.6,44.5,36.6c0.1,0,0.2,0.2,0.2,0.4c0,0,0,0,0,0.1c0,0,0,0.1,0,0.1c0,0.1-0.1,0.3-0.1,0.5c0,0.2,0,0.3-0.1,0.5C44.4,37.5,44.4,36.9,44.5,36.6z M43.5,43.7c0.4-0.9,0.8-1.7,1-2.4c0.4,0.9,1,1.6,1.6,2.2c0.1,0.1,0.2,0.2,0.4,0.3c-1.2,0.2-2.4,0.6-3.5,1C43.2,44.4,43.3,44,43.5,43.7z"/>
</g>
</svg>
