<svg xmlns="http://www.w3.org/2000/svg" width="13" height="14" viewBox="0 0 13 14">
    <g fill="#4D4C4C">
        <path d="M8.965 0a.464.464 0 01.351.767L8.002 2.288v2.634a5.406 5.406 0 012.513 3.423H0a5.405 5.405 0 012.411-3.362v-2.69L1.094.767A.464.464 0 011.444 0h7.521zM7.76 1.016H2.65l.777.9v3.631l-.48.298a4.405 4.405 0 00-1.42 1.425l-.036.059h7.532l-.019-.032A4.404 4.404 0 007.56 5.84l-.075-.045-.498-.295V1.91l.772-.895zM5.707 9.334L5.707 13.93 4.692 13.93 4.692 9.334z" transform="rotate(45 3.732 7.693)"/>
    </g>
</svg>
