<svg xmlns="http://www.w3.org/2000/svg" width="13" height="13" viewBox="0 0 13 13">
    <g fill="#B1B1B1">
        <path d="M5.75 0c3.176 0 5.75 2.574 5.75 5.75S8.926 11.5 5.75 11.5 0 8.926 0 5.75 2.574 0 5.75 0zm0 .896C3.07.896.896 3.069.896 5.75c0 2.68 2.173 4.854 4.854 4.854 2.68 0 4.854-2.173 4.854-4.854 0-2.68-2.173-4.854-4.854-4.854z" transform="translate(.601 .506)"/>
        <path d="M6.107 7.244c0-.276.018-.479.053-.61.034-.13.134-.277.297-.44.352-.34.635-.672.849-.997.213-.324.32-.682.32-1.073 0-.546-.165-.971-.495-1.276-.331-.304-.795-.457-1.392-.457-.546 0-.995.147-1.349.441-.353.294-.525.686-.516 1.174l.014.027h.855c0-.291.097-.512.29-.662.195-.15.43-.225.706-.225.318 0 .563.087.734.26.172.172.257.42.257.74 0 .27-.063.501-.19.692-.128.191-.342.464-.642.819-.31.279-.5.503-.573.673-.073.17-.11.474-.114.914h.896zM6.14 9.11v-.946h-.937v.946h.937z" transform="translate(.601 .506)"/>
    </g>
</svg>
