<svg width="20" height="20" viewBox="0 0 20 20" fill="none" xmlns="http://www.w3.org/2000/svg">
<circle cx="10" cy="10" r="10" fill="white"/>
<g clip-path="url(#clip0)">
<path d="M7.35011 12.6899C7.00145 12.3419 6.72475 11.9286 6.5358 11.4737C6.34686 11.0187 6.24937 10.531 6.24891 10.0384C6.24844 9.54581 6.34501 9.05792 6.5331 8.60263C6.72118 8.14734 6.99711 7.73354 7.34511 7.38488C7.69311 7.03623 8.10638 6.75953 8.56132 6.57058C9.01626 6.38164 9.50396 6.28415 9.99657 6.28368C10.4892 6.28322 10.9771 6.37979 11.4324 6.56787C11.8877 6.75596 12.3014 7.03188 12.6501 7.37989L11.3701 8.65988L15.3701 9.05989L14.9801 5.05989L13.7101 6.28989C12.9756 5.55642 12.0401 5.05716 11.0219 4.85521C10.0037 4.65325 8.94851 4.75766 7.98964 5.15525C7.03077 5.55283 6.21128 6.22574 5.63474 7.08893C5.0582 7.95213 4.75049 8.96686 4.75049 10.0049C4.75049 11.0429 5.0582 12.0576 5.63474 12.9208C6.21128 13.784 7.03077 14.4569 7.98964 14.8545C8.94851 15.2521 10.0037 15.3565 11.0219 15.1546C12.0401 14.9526 12.9756 14.4534 13.7101 13.7199L12.6501 12.6899C11.947 13.3921 10.9939 13.7866 10.0001 13.7866C9.00635 13.7866 8.05324 13.3921 7.35011 12.6899Z" fill="var(--color-theme-primary)"/>
<path d="M10 0C8.02219 0 6.08879 0.58649 4.4443 1.6853C2.79981 2.78412 1.51809 4.3459 0.761209 6.17317C0.00433284 8.00043 -0.193701 10.0111 0.192152 11.9509C0.578004 13.8907 1.53041 15.6725 2.92894 17.0711C4.32746 18.4696 6.10929 19.422 8.0491 19.8079C9.98891 20.1937 11.9996 19.9957 13.8268 19.2388C15.6541 18.4819 17.2159 17.2002 18.3147 15.5557C19.4135 13.9112 20 11.9778 20 10C20 7.34783 18.9464 4.8043 17.0711 2.92893C15.1957 1.05357 12.6522 0 10 0ZM10 18.5C8.31886 18.5 6.67548 18.0015 5.27766 17.0675C3.87984 16.1335 2.79038 14.806 2.14703 13.2528C1.50369 11.6996 1.33536 9.99057 1.66333 8.34173C1.99131 6.69289 2.80085 5.17834 3.9896 3.98959C5.17835 2.80085 6.6929 1.9913 8.34174 1.66332C9.99058 1.33535 11.6996 1.50368 13.2528 2.14702C14.806 2.79037 16.1335 3.87983 17.0675 5.27765C18.0015 6.67547 18.5 8.31886 18.5 10C18.4974 12.2535 17.601 14.414 16.0075 16.0075C14.414 17.601 12.2535 18.4974 10 18.5Z" fill="var(--color-theme-primary)"/>
</g>
<defs>
<clipPath id="clip0">
<rect width="20" height="20" fill="white"/>
</clipPath>
</defs>
</svg>
