<svg xmlns="http://www.w3.org/2000/svg" width="16" height="16" viewBox="0 0 16 16">
    <g fill="#4D4C4C" fill-rule="evenodd" transform="translate(.5 .5)">
        <path fill-rule="nonzero" d="M10.313 1.406l1.406 1.875H15v9.844H0V3.281h2.813l1.406-1.875h6.093zm-.586 1.159H4.778l-1.484 1.98H1.067v7.421h12.866V4.544H11.21l-1.484-1.98z"/>
        <path fill-rule="nonzero" d="M7.5 4.688c-1.683 0-3.047 1.364-3.047 3.046 0 1.683 1.364 3.047 3.047 3.047s3.047-1.364 3.047-3.047c0-1.682-1.364-3.046-3.047-3.046zm0 1.171c1.036 0 1.875.84 1.875 1.875 0 1.036-.84 1.875-1.875 1.875-1.036 0-1.875-.84-1.875-1.875 0-1.035.84-1.875 1.875-1.875z"/>
        <circle cx="12.422" cy="6.094" r="1"/>
    </g>
</svg>
