<?xml version="1.0" encoding="UTF-8"?>
<svg width="40px" height="60px" viewBox="0 0 40 60" version="1.1" xmlns="http://www.w3.org/2000/svg" xmlns:xlink="http://www.w3.org/1999/xlink">
    <!-- Generator: Sketch 60 (88103) - https://sketch.com -->
    <title>Group 2</title>
    <desc>Created with Sketch.</desc>
    <g id="Stage-4---UI-Changes" stroke="none" stroke-width="1" fill="none" fill-rule="evenodd">
        <g id="Stage-4---PDF-overlay-pin-setting" transform="translate(-946.000000, -439.000000)">
            <g id="Group-2" transform="translate(946.040949, 439.000000)">
                <path d="M19.9998741,0 C31.028521,0 39.9690058,8.8021382 39.9690058,19.6601259 L39.9690058,19.6601259 C40.2043421,24.2973161 39.0995116,29.0854948 36.6545144,34.024662 C34.2095171,38.9638293 28.6579704,47.6222752 19.9998741,60 C11.8453351,49.0132009 6.41706316,40.7906256 3.71505828,35.3322743 C1.0130534,29.873923 -0.215051917,24.6498735 0.0307423317,19.6601259 L0.0337062458,19.3179334 C0.21919444,8.61780534 9.08731816,0 19.9998741,0 Z" id="Combined-Shape" fill="var(--color-theme-primary-lighter)"></path>
                <path d="M16.1679688,30 L17.3105469,26.5546875 L22.6894531,26.5546875 L23.8320312,30 L26.2929688,30 L21.2832031,16.0957031 L18.734375,16.0957031 L13.7070312,30 L16.1679688,30 Z M22.0742188,24.6914062 L17.9257812,24.6914062 L19.1035156,21.0878906 C19.6308594,19.3652344 19.9121094,18.4453125 19.9472656,18.328125 L19.9472656,18.328125 L20.0527344,18.328125 C20.1113281,18.515625 20.1962891,18.7998047 20.3076172,19.1806641 C20.4189453,19.5615234 20.5244141,19.9101562 20.6240234,20.2265625 C20.7236328,20.5429688 20.8144531,20.8300781 20.8964844,21.0878906 L20.8964844,21.0878906 L22.0742188,24.6914062 Z" id="A" fill="#FFFFFF" fill-rule="nonzero"></path>
            </g>
        </g>
    </g>
</svg>