<?xml version="1.0" encoding="UTF-8"?>
<svg width="40px" height="60px" viewBox="0 0 40 60" version="1.1" xmlns="http://www.w3.org/2000/svg" xmlns:xlink="http://www.w3.org/1999/xlink">
    <!-- Generator: Sketch 60 (88103) - https://sketch.com -->
    <title>Group</title>
    <desc>Created with Sketch.</desc>
    <g id="Stage-4---UI-Changes" stroke="none" stroke-width="1" fill="none" fill-rule="evenodd">
        <g id="Stage-4---PDF-overlay-pin-setting" transform="translate(-1458.000000, -339.000000)">
            <g id="Group" transform="translate(1458.000000, 339.000000)">
                <path d="M19.9998741,0 C31.028521,0 39.9690058,8.8021382 39.9690058,19.6601259 L39.9690058,19.6601259 C40.2043421,24.2973161 39.0995116,29.0854948 36.6545144,34.024662 C34.2095171,38.9638293 28.6579704,47.6222752 19.9998741,60 C11.8453351,49.0132009 6.41706316,40.7906256 3.71505828,35.3322743 C1.0130534,29.873923 -0.215051917,24.6498735 0.0307423317,19.6601259 L0.0337062458,19.3179334 C0.21919444,8.61780534 9.08731816,0 19.9998741,0 Z" id="Combined-Shape" fill="var(--color-theme-primary-lighter)"></path>
                <path d="M21.2568359,30 C22.5927734,30 23.6328125,29.6162109 24.3769531,28.8486328 C25.1210938,28.0810547 25.4931641,27.1171875 25.4931641,25.9570312 C25.4931641,25.125 25.2705078,24.4189453 24.8251953,23.8388672 C24.3798828,23.2587891 23.8642578,22.8632812 23.2783203,22.6523438 C23.7939453,22.3828125 24.2099609,22.0048828 24.5263672,21.5185547 C24.8427734,21.0322266 25.0009766,20.4492188 25.0009766,19.7695312 C25.0009766,18.6328125 24.6318359,17.7363281 23.8935547,17.0800781 C23.1552734,16.4238281 22.0478516,16.0957031 20.5712891,16.0957031 L20.5712891,16.0957031 L15.2978516,16.0957031 L15.2978516,30 L21.2568359,30 Z M20.3427734,21.8789062 L17.6181641,21.8789062 L17.6181641,18.0820312 L20.4130859,18.0820312 C21.1630859,18.0820312 21.7167969,18.2490234 22.0742188,18.5830078 C22.4316406,18.9169922 22.6103516,19.3710938 22.6103516,19.9453125 C22.6103516,20.5898438 22.3994141,21.0732422 21.9775391,21.3955078 C21.5556641,21.7177734 21.0107422,21.8789062 20.3427734,21.8789062 L20.3427734,21.8789062 Z M20.8525391,28.03125 L17.6181641,28.03125 L17.6181641,23.8300781 L20.7998047,23.8300781 C21.5263672,23.8300781 22.0917969,24.0292969 22.4960938,24.4277344 C22.9003906,24.8261719 23.1025391,25.3359375 23.1025391,25.9570312 C23.1025391,26.6132812 22.8828125,27.1230469 22.4433594,27.4863281 C22.0039062,27.8496094 21.4736328,28.03125 20.8525391,28.03125 L20.8525391,28.03125 Z" id="B" fill="#FFFFFF" fill-rule="nonzero"></path>
            </g>
        </g>
    </g>
</svg>