<svg xmlns="http://www.w3.org/2000/svg" xmlns:xlink="http://www.w3.org/1999/xlink" width="15" height="15" viewBox="0 0 15 15">
    <defs>
        <path id="prefix__a" d="M0.197 0.023L10.055 0.023 10.055 8.941 0.197 8.941z"/>
    </defs>
    <g fill="none" fill-rule="evenodd">
        <g transform="translate(0 .766) translate(4.922 .211)">
            <mask id="prefix__b" fill="#fff">
                <use xlink:href="#prefix__a"/>
            </mask>
            <path fill="#4D4C4C" d="M6.263 8.94c-.147 0-.295-.055-.407-.168-.225-.225-.225-.59 0-.815l2.275-2.275c1.03-1.03 1.03-2.705 0-3.735-1.03-1.03-2.706-1.03-3.735 0L2.12 4.222c-1.03 1.03-1.03 2.706 0 3.735.225.225.225.59 0 .815-.225.225-.59.225-.815 0-1.479-1.479-1.479-3.886 0-5.365l2.275-2.275c1.479-1.479 3.886-1.479 5.365 0 1.479 1.48 1.479 3.886 0 5.365L6.67 8.772c-.113.113-.26.169-.408.169" mask="url(#prefix__b)"/>
        </g>
        <path fill="#4D4C4C" d="M3.792 6.293c.147 0 .294.057.407.17.225.224.225.59 0 .814L1.924 9.552c-1.03 1.03-1.03 2.705 0 3.735 1.03 1.03 2.706 1.03 3.735 0l2.275-2.275c1.03-1.03 1.03-2.705 0-3.735-.225-.225-.225-.59 0-.815.225-.225.59-.225.815 0 1.479 1.48 1.479 3.886 0 5.365l-2.275 2.275c-1.48 1.479-3.886 1.479-5.365 0s-1.479-3.886 0-5.365l2.275-2.275c.113-.112.26-.169.408-.169" transform="translate(0 .766)"/>
    </g>
</svg>
